<?xml version="1.0" encoding="UTF-8" standalone="no"?>
<!DOCTYPE svg PUBLIC "-//W3C//DTD SVG 1.1//EN"
 "http://www.w3.org/Graphics/SVG/1.1/DTD/svg11.dtd">
<!-- Generated by graphviz version 9.0.0 (20230911.1827)
 -->
<!-- Pages: 1 -->
<svg width="233pt" height="188pt"
 viewBox="0.00 0.00 233.00 188.25" xmlns="http://www.w3.org/2000/svg" xmlns:xlink="http://www.w3.org/1999/xlink">
<g id="graph0" class="graph" transform="scale(1 1) rotate(0) translate(4 184.25)">
<polygon fill="white" stroke="none" points="-4,4 -4,-184.25 229,-184.25 229,4 -4,4"/>
<!-- torch_input_0 -->
<g id="node1" class="node">
<title>torch_input_0</title>
<polygon fill="#dcdcdc" stroke="black" points="139.5,-180.25 85.5,-180.25 85.5,-124.25 139.5,-124.25 139.5,-180.25"/>
<polygon fill="none" stroke="black" points="87.62,-164 87.62,-179.25 137.38,-179.25 137.38,-164 87.62,-164"/>
<text text-anchor="start" x="97.88" y="-167.75" font-family="Linux libertine" font-size="10.00">randint</text>
<polygon fill="none" stroke="black" points="87.62,-125.25 87.62,-163 137.38,-163 137.38,-125.25 87.62,-125.25"/>
<text text-anchor="start" x="92.25" y="-151.5" font-family="Linux libertine" font-size="10.00">Output: 0</text>
<text text-anchor="start" x="98.62" y="-140.25" font-family="Linux libertine" font-size="10.00">(1, 64)</text>
<text text-anchor="start" x="89.62" y="-129" font-family="Linux libertine" font-size="10.00">torch.int64</text>
</g>
<!-- _135 -->
<g id="node2" class="node">
<title>_135</title>
<polygon fill="#0000ff" fill-opacity="0.501961" stroke="black" points="225,-77 0,-77 0,0 225,0 225,-77"/>
<polygon fill="none" stroke="black" points="1,-1 1,-76 106,-76 106,-1 1,-1"/>
<text text-anchor="start" x="31.38" y="-40.25" font-family="Linux libertine" font-size="10.00">BertModel</text>
<text text-anchor="start" x="2.88" y="-29" font-family="Linux libertine" font-size="10.00">duration: 0.494765043s</text>
<polygon fill="none" stroke="black" points="107,-39 107,-76 224,-76 224,-39 107,-39"/>
<text text-anchor="start" x="149" y="-64.5" font-family="Linux libertine" font-size="10.00">Input: 0</text>
<text text-anchor="start" x="151.62" y="-53.25" font-family="Linux libertine" font-size="10.00">(1, 64)</text>
<text text-anchor="start" x="142.62" y="-42" font-family="Linux libertine" font-size="10.00">torch.int64</text>
<polygon fill="none" stroke="black" points="107,-1 107,-38 165,-38 165,-1 107,-1"/>
<text text-anchor="start" x="115.75" y="-26.5" font-family="Linux libertine" font-size="10.00">Output: 0</text>
<text text-anchor="start" x="111.25" y="-15.25" font-family="Linux libertine" font-size="10.00">(1, 64, 256)</text>
<text text-anchor="start" x="109" y="-4" font-family="Linux libertine" font-size="10.00">torch.float32</text>
<polygon fill="none" stroke="black" points="166,-1 166,-38 224,-38 224,-1 166,-1"/>
<text text-anchor="start" x="174.75" y="-26.5" font-family="Linux libertine" font-size="10.00">Output: 1</text>
<text text-anchor="start" x="178.5" y="-15.25" font-family="Linux libertine" font-size="10.00">(1, 256)</text>
<text text-anchor="start" x="168" y="-4" font-family="Linux libertine" font-size="10.00">torch.float32</text>
</g>
<!-- torch_input_0&#45;&gt;_135 -->
<g id="edge1" class="edge">
<title>torch_input_0&#45;&gt;_135</title>
<path fill="none" stroke="black" d="M112.5,-123.91C112.5,-113.24 112.5,-100.66 112.5,-88.53"/>
<polygon fill="black" stroke="black" points="116,-88.61 112.5,-78.61 109,-88.61 116,-88.61"/>
<text text-anchor="middle" x="124.5" y="-96.75" font-family="Times,serif" font-size="10.00">0 &#45;&gt; 0</text>
</g>
</g>
</svg>
