<?xml version="1.0" encoding="UTF-8" standalone="no"?>
<!DOCTYPE svg PUBLIC "-//W3C//DTD SVG 1.1//EN"
 "http://www.w3.org/Graphics/SVG/1.1/DTD/svg11.dtd">
<!-- Generated by graphviz version 9.0.0 (20230911.1827)
 -->
<!-- Pages: 1 -->
<svg width="386pt" height="877pt"
 viewBox="0.00 0.00 386.35 876.81" xmlns="http://www.w3.org/2000/svg" xmlns:xlink="http://www.w3.org/1999/xlink">
<g id="graph0" class="graph" transform="scale(1 1) rotate(0) translate(4 872.81)">
<polygon fill="white" stroke="none" points="-4,4 -4,-872.81 382.35,-872.81 382.35,4 -4,4"/>
<g id="clust1" class="cluster">
<title>_135</title>
<polygon fill="#0000ff" fill-opacity="0.501961" stroke="black" points="72.35,-8 72.35,-860.81 370.35,-860.81 370.35,-8 72.35,-8"/>
<text text-anchor="middle" x="221.35" y="-843.51" font-family="Times,serif" font-size="14.00">BertModel</text>
</g>
<!-- torch_input_0 -->
<g id="node1" class="node">
<title>torch_input_0</title>
<ellipse fill="white" stroke="black" cx="32.35" cy="-542.89" rx="32.35" ry="32.35"/>
<text text-anchor="middle" x="32.35" y="-550.26" font-family="Linux libertine" font-size="10.00">randint</text>
<text text-anchor="middle" x="32.35" y="-539.01" font-family="Linux libertine" font-size="10.00">(1, 64)</text>
<text text-anchor="middle" x="32.35" y="-527.76" font-family="Linux libertine" font-size="10.00">torch.int64</text>
</g>
<!-- _135/module_input_1 -->
<g id="node7" class="node">
<title>_135/module_input_1</title>
<polygon fill="white" stroke="black" points="196.48,-436.15 80.23,-436.15 80.23,-402.4 196.48,-402.4 196.48,-436.15"/>
<text text-anchor="middle" x="138.35" y="-426.65" font-family="Linux libertine" font-size="10.00">torch.Tensor: Module Input</text>
<text text-anchor="middle" x="138.35" y="-415.4" font-family="Linux libertine" font-size="10.00">(1, 64)</text>
<text text-anchor="middle" x="138.35" y="-404.15" font-family="Linux libertine" font-size="10.00">torch.int64</text>
</g>
<!-- torch_input_0&#45;&gt;_135/module_input_1 -->
<g id="edge10" class="edge">
<title>torch_input_0&#45;&gt;_135/module_input_1</title>
<path fill="none" stroke="black" d="M53.29,-517.86C71.66,-496.78 98.27,-466.26 116.82,-444.98"/>
<polygon fill="black" stroke="black" points="119.3,-447.46 123.23,-437.62 114.02,-442.86 119.3,-447.46"/>
<text text-anchor="middle" x="100.35" y="-477.2" font-family="Times,serif" font-size="10.00">0 &#45;&gt; 0</text>
</g>
<!-- _135/torch_input_8 -->
<g id="node2" class="node">
<title>_135/torch_input_8</title>
<polygon fill="white" stroke="black" points="268.35,-436.15 214.35,-436.15 214.35,-402.4 268.35,-402.4 268.35,-436.15"/>
<text text-anchor="middle" x="241.35" y="-426.65" font-family="Linux libertine" font-size="10.00">torch.Tensor</text>
<text text-anchor="middle" x="241.35" y="-415.4" font-family="Linux libertine" font-size="10.00">(1, 64)</text>
<text text-anchor="middle" x="241.35" y="-404.15" font-family="Linux libertine" font-size="10.00">torch.int64</text>
</g>
<!-- _135/embeddings_34 -->
<g id="node11" class="node">
<title>_135/embeddings_34</title>
<polygon fill="#ee00ee" fill-opacity="0.501961" stroke="black" points="268.14,-295.65 238.74,-332.4 179.96,-332.4 150.56,-295.65 179.96,-258.91 238.74,-258.91 268.14,-295.65"/>
<text text-anchor="middle" x="209.35" y="-308.65" font-family="Linux libertine" font-size="10.00">BertEmbeddings</text>
<text text-anchor="middle" x="209.35" y="-297.4" font-family="Linux libertine" font-size="10.00">embeddings</text>
<text text-anchor="middle" x="209.35" y="-286.15" font-family="Linux libertine" font-size="10.00">(1, 64, 256)</text>
<text text-anchor="middle" x="209.35" y="-274.9" font-family="Linux libertine" font-size="10.00">torch.float32</text>
</g>
<!-- _135/torch_input_8&#45;&gt;_135/embeddings_34 -->
<g id="edge8" class="edge">
<title>_135/torch_input_8&#45;&gt;_135/embeddings_34</title>
<path fill="none" stroke="black" d="M237.1,-402.12C233.18,-387.22 227.16,-364.36 221.73,-343.72"/>
<polygon fill="black" stroke="black" points="225.19,-343.11 219.26,-334.33 218.42,-344.89 225.19,-343.11"/>
<text text-anchor="middle" x="237.35" y="-353.59" font-family="Times,serif" font-size="10.00" fill="white">0 &#45;&gt; 1</text>
</g>
<!-- _135/__getitem___4 -->
<g id="node3" class="node">
<title>_135/__getitem___4</title>
<ellipse fill="white" stroke="black" cx="324.35" cy="-666.51" rx="38.18" ry="38.18"/>
<text text-anchor="middle" x="324.35" y="-673.88" font-family="Linux libertine" font-size="10.00">__getitem__</text>
<text text-anchor="middle" x="324.35" y="-662.63" font-family="Linux libertine" font-size="10.00">(1, 1, 1, 64)</text>
<text text-anchor="middle" x="324.35" y="-651.38" font-family="Linux libertine" font-size="10.00">torch.float32</text>
</g>
<!-- _135/to_5 -->
<g id="node10" class="node">
<title>_135/to_5</title>
<ellipse fill="white" stroke="black" cx="324.35" cy="-542.89" rx="38.18" ry="38.18"/>
<text text-anchor="middle" x="324.35" y="-550.26" font-family="Linux libertine" font-size="10.00">to</text>
<text text-anchor="middle" x="324.35" y="-539.01" font-family="Linux libertine" font-size="10.00">(1, 1, 1, 64)</text>
<text text-anchor="middle" x="324.35" y="-527.76" font-family="Linux libertine" font-size="10.00">torch.float32</text>
</g>
<!-- _135/__getitem___4&#45;&gt;_135/to_5 -->
<g id="edge7" class="edge">
<title>_135/__getitem___4&#45;&gt;_135/to_5</title>
<path fill="none" stroke="black" d="M324.35,-628.02C324.35,-616.93 324.35,-604.61 324.35,-592.9"/>
<polygon fill="black" stroke="black" points="327.85,-592.97 324.35,-582.97 320.85,-592.97 327.85,-592.97"/>
<text text-anchor="middle" x="336.35" y="-600.82" font-family="Times,serif" font-size="10.00" fill="white">0 &#45;&gt; 0</text>
</g>
<!-- _135/torch_input_3 -->
<g id="node4" class="node">
<title>_135/torch_input_3</title>
<ellipse fill="white" stroke="black" cx="324.35" cy="-790.12" rx="38.18" ry="38.18"/>
<text text-anchor="middle" x="324.35" y="-797.5" font-family="Linux libertine" font-size="10.00">ones</text>
<text text-anchor="middle" x="324.35" y="-786.25" font-family="Linux libertine" font-size="10.00">(1, 64)</text>
<text text-anchor="middle" x="324.35" y="-775" font-family="Linux libertine" font-size="10.00">torch.float32</text>
</g>
<!-- _135/torch_input_3&#45;&gt;_135/__getitem___4 -->
<g id="edge1" class="edge">
<title>_135/torch_input_3&#45;&gt;_135/__getitem___4</title>
<path fill="none" stroke="black" d="M324.35,-751.64C324.35,-740.54 324.35,-728.23 324.35,-716.51"/>
<polygon fill="black" stroke="black" points="327.85,-716.59 324.35,-706.59 320.85,-716.59 327.85,-716.59"/>
<text text-anchor="middle" x="336.35" y="-724.44" font-family="Times,serif" font-size="10.00" fill="white">0 &#45;&gt; 0</text>
</g>
<!-- _135/mul_7 -->
<g id="node5" class="node">
<title>_135/mul_7</title>
<ellipse fill="white" stroke="black" cx="324.35" cy="-295.65" rx="38.18" ry="38.18"/>
<text text-anchor="middle" x="324.35" y="-303.03" font-family="Linux libertine" font-size="10.00">mul</text>
<text text-anchor="middle" x="324.35" y="-291.78" font-family="Linux libertine" font-size="10.00">(1, 1, 1, 64)</text>
<text text-anchor="middle" x="324.35" y="-280.53" font-family="Linux libertine" font-size="10.00">torch.float32</text>
</g>
<!-- _135/encoder_123 -->
<g id="node9" class="node">
<title>_135/encoder_123</title>
<polygon fill="#ee00ee" fill-opacity="0.501961" stroke="black" points="293.44,-173.48 271.4,-210.22 227.3,-210.22 205.26,-173.48 227.3,-136.73 271.4,-136.73 293.44,-173.48"/>
<text text-anchor="middle" x="249.35" y="-186.48" font-family="Linux libertine" font-size="10.00">BertEncoder</text>
<text text-anchor="middle" x="249.35" y="-175.23" font-family="Linux libertine" font-size="10.00">encoder</text>
<text text-anchor="middle" x="249.35" y="-163.98" font-family="Linux libertine" font-size="10.00">(1, 64, 256)</text>
<text text-anchor="middle" x="249.35" y="-152.73" font-family="Linux libertine" font-size="10.00">torch.float32</text>
</g>
<!-- _135/mul_7&#45;&gt;_135/encoder_123 -->
<g id="edge5" class="edge">
<title>_135/mul_7&#45;&gt;_135/encoder_123</title>
<path fill="none" stroke="black" d="M304.45,-262.76C296.27,-249.66 286.64,-234.23 277.75,-219.98"/>
<polygon fill="black" stroke="black" points="280.79,-218.25 272.53,-211.62 274.86,-221.96 280.79,-218.25"/>
<text text-anchor="middle" x="300.35" y="-229.97" font-family="Times,serif" font-size="10.00" fill="white">0 &#45;&gt; 1</text>
</g>
<!-- _135/__rsub___6 -->
<g id="node6" class="node">
<title>_135/__rsub___6</title>
<ellipse fill="white" stroke="black" cx="324.35" cy="-419.27" rx="38.18" ry="38.18"/>
<text text-anchor="middle" x="324.35" y="-426.65" font-family="Linux libertine" font-size="10.00">__rsub__</text>
<text text-anchor="middle" x="324.35" y="-415.4" font-family="Linux libertine" font-size="10.00">(1, 1, 1, 64)</text>
<text text-anchor="middle" x="324.35" y="-404.15" font-family="Linux libertine" font-size="10.00">torch.float32</text>
</g>
<!-- _135/__rsub___6&#45;&gt;_135/mul_7 -->
<g id="edge2" class="edge">
<title>_135/__rsub___6&#45;&gt;_135/mul_7</title>
<path fill="none" stroke="black" d="M324.35,-380.79C324.35,-369.69 324.35,-357.37 324.35,-345.66"/>
<polygon fill="black" stroke="black" points="327.85,-345.73 324.35,-335.73 320.85,-345.73 327.85,-345.73"/>
<text text-anchor="middle" x="336.35" y="-353.59" font-family="Times,serif" font-size="10.00" fill="white">0 &#45;&gt; 0</text>
</g>
<!-- _135/module_input_1&#45;&gt;_135/embeddings_34 -->
<g id="edge9" class="edge">
<title>_135/module_input_1&#45;&gt;_135/embeddings_34</title>
<path fill="none" stroke="black" d="M147.78,-402.12C156.64,-386.95 170.32,-363.51 182.54,-342.58"/>
<polygon fill="black" stroke="black" points="185.43,-344.57 187.45,-334.17 179.38,-341.04 185.43,-344.57"/>
<text text-anchor="middle" x="187.35" y="-353.59" font-family="Times,serif" font-size="10.00" fill="white">0 &#45;&gt; 0</text>
</g>
<!-- _135/pooler_134 -->
<g id="node8" class="node">
<title>_135/pooler_134</title>
<polygon fill="#ee00ee" fill-opacity="0.501961" stroke="black" points="293.44,-52.74 271.4,-89.48 227.3,-89.48 205.26,-52.74 227.3,-16 271.4,-16 293.44,-52.74"/>
<text text-anchor="middle" x="249.35" y="-65.74" font-family="Linux libertine" font-size="10.00">BertPooler</text>
<text text-anchor="middle" x="249.35" y="-54.49" font-family="Linux libertine" font-size="10.00">pooler</text>
<text text-anchor="middle" x="249.35" y="-43.24" font-family="Linux libertine" font-size="10.00">(1, 256)</text>
<text text-anchor="middle" x="249.35" y="-31.99" font-family="Linux libertine" font-size="10.00">torch.float32</text>
</g>
<!-- _135/encoder_123&#45;&gt;_135/pooler_134 -->
<g id="edge4" class="edge">
<title>_135/encoder_123&#45;&gt;_135/pooler_134</title>
<path fill="none" stroke="black" d="M249.35,-136.53C249.35,-125.47 249.35,-113.12 249.35,-101.41"/>
<polygon fill="black" stroke="black" points="252.85,-101.49 249.35,-91.49 245.85,-101.49 252.85,-101.49"/>
<text text-anchor="middle" x="261.35" y="-109.23" font-family="Times,serif" font-size="10.00" fill="white">0 &#45;&gt; 0</text>
</g>
<!-- _135/to_5&#45;&gt;_135/__rsub___6 -->
<g id="edge3" class="edge">
<title>_135/to_5&#45;&gt;_135/__rsub___6</title>
<path fill="none" stroke="black" d="M324.35,-504.41C324.35,-493.31 324.35,-480.99 324.35,-469.28"/>
<polygon fill="black" stroke="black" points="327.85,-469.35 324.35,-459.35 320.85,-469.35 327.85,-469.35"/>
<text text-anchor="middle" x="336.35" y="-477.2" font-family="Times,serif" font-size="10.00" fill="white">0 &#45;&gt; 0</text>
</g>
<!-- _135/embeddings_34&#45;&gt;_135/encoder_123 -->
<g id="edge6" class="edge">
<title>_135/embeddings_34&#45;&gt;_135/encoder_123</title>
<path fill="none" stroke="black" d="M221.35,-258.6C225.27,-246.83 229.67,-233.6 233.81,-221.17"/>
<polygon fill="black" stroke="black" points="237.04,-222.54 236.88,-211.94 230.4,-220.33 237.04,-222.54"/>
<text text-anchor="middle" x="242.35" y="-229.97" font-family="Times,serif" font-size="10.00" fill="white">0 &#45;&gt; 0</text>
</g>
</g>
</svg>
