<?xml version="1.0" encoding="UTF-8" standalone="no"?>
<!DOCTYPE svg PUBLIC "-//W3C//DTD SVG 1.1//EN"
 "http://www.w3.org/Graphics/SVG/1.1/DTD/svg11.dtd">
<!-- Generated by graphviz version 9.0.0 (20230911.1827)
 -->
<!-- Pages: 1 -->
<svg width="348pt" height="759pt"
 viewBox="0.00 0.00 348.35 759.37" xmlns="http://www.w3.org/2000/svg" xmlns:xlink="http://www.w3.org/1999/xlink">
<g id="graph0" class="graph" transform="scale(1 1) rotate(0) translate(4 755.37)">
<polygon fill="white" stroke="none" points="-4,4 -4,-755.37 344.35,-755.37 344.35,4 -4,4"/>
<g id="clust1" class="cluster">
<title>_135</title>
<polygon fill="#0000ff" fill-opacity="0.501961" stroke="black" points="72.35,-8 72.35,-743.37 332.35,-743.37 332.35,-8 72.35,-8"/>
<text text-anchor="middle" x="202.35" y="-726.07" font-family="Times,serif" font-size="14.00">BertModel</text>
</g>
<!-- torch_input_0 -->
<g id="node1" class="node">
<title>torch_input_0</title>
<ellipse fill="white" stroke="black" cx="32.35" cy="-497.05" rx="32.35" ry="23.86"/>
<text text-anchor="middle" x="32.35" y="-504.42" font-family="Linux libertine" font-size="10.00">randint</text>
<text text-anchor="middle" x="32.35" y="-493.17" font-family="Linux libertine" font-size="10.00">(1, 64)</text>
<text text-anchor="middle" x="32.35" y="-481.92" font-family="Linux libertine" font-size="10.00">torch.int64</text>
</g>
<!-- _135/module_input_1 -->
<g id="node7" class="node">
<title>_135/module_input_1</title>
<polygon fill="white" stroke="black" points="157.98,-424.57 80.73,-424.57 80.73,-379.57 157.98,-379.57 157.98,-424.57"/>
<text text-anchor="middle" x="119.35" y="-415.07" font-family="Linux libertine" font-size="10.00">TorchModuleInput</text>
<text text-anchor="middle" x="119.35" y="-403.82" font-family="Linux libertine" font-size="10.00">input_ids</text>
<text text-anchor="middle" x="119.35" y="-392.57" font-family="Linux libertine" font-size="10.00">(1, 64)</text>
<text text-anchor="middle" x="119.35" y="-381.32" font-family="Linux libertine" font-size="10.00">torch.int64</text>
</g>
<!-- torch_input_0&#45;&gt;_135/module_input_1 -->
<g id="edge10" class="edge">
<title>torch_input_0&#45;&gt;_135/module_input_1</title>
<path fill="none" stroke="black" d="M50.38,-476.78C62.19,-464.16 77.88,-447.39 91.31,-433.04"/>
<polygon fill="black" stroke="black" points="93.6,-435.71 97.87,-426.02 88.49,-430.93 93.6,-435.71"/>
<text text-anchor="middle" x="92.35" y="-445.68" font-family="Times,serif" font-size="10.00">0 &#45;&gt; 0</text>
</g>
<!-- _135/__rsub___6 -->
<g id="node2" class="node">
<title>_135/__rsub___6</title>
<ellipse fill="white" stroke="black" cx="286.35" cy="-402.07" rx="38.18" ry="23.86"/>
<text text-anchor="middle" x="286.35" y="-409.44" font-family="Linux libertine" font-size="10.00">__rsub__</text>
<text text-anchor="middle" x="286.35" y="-398.19" font-family="Linux libertine" font-size="10.00">(1, 1, 1, 64)</text>
<text text-anchor="middle" x="286.35" y="-386.94" font-family="Linux libertine" font-size="10.00">torch.float32</text>
</g>
<!-- _135/mul_7 -->
<g id="node10" class="node">
<title>_135/mul_7</title>
<ellipse fill="white" stroke="black" cx="286.35" cy="-294.21" rx="38.18" ry="23.86"/>
<text text-anchor="middle" x="286.35" y="-301.59" font-family="Linux libertine" font-size="10.00">mul</text>
<text text-anchor="middle" x="286.35" y="-290.34" font-family="Linux libertine" font-size="10.00">(1, 1, 1, 64)</text>
<text text-anchor="middle" x="286.35" y="-279.09" font-family="Linux libertine" font-size="10.00">torch.float32</text>
</g>
<!-- _135/__rsub___6&#45;&gt;_135/mul_7 -->
<g id="edge9" class="edge">
<title>_135/__rsub___6&#45;&gt;_135/mul_7</title>
<path fill="none" stroke="black" d="M286.35,-377.84C286.35,-363.77 286.35,-345.57 286.35,-329.83"/>
<polygon fill="black" stroke="black" points="289.85,-329.9 286.35,-319.9 282.85,-329.9 289.85,-329.9"/>
<text text-anchor="middle" x="298.35" y="-350.7" font-family="Times,serif" font-size="10.00" fill="white">0 &#45;&gt; 0</text>
</g>
<!-- _135/pooler_134 -->
<g id="node3" class="node">
<title>_135/pooler_134</title>
<polygon fill="#ee00ee" fill-opacity="0.501961" stroke="black" points="255.44,-52.74 233.4,-89.48 189.3,-89.48 167.26,-52.74 189.3,-16 233.4,-16 255.44,-52.74"/>
<text text-anchor="middle" x="211.35" y="-65.74" font-family="Linux libertine" font-size="10.00">BertPooler</text>
<text text-anchor="middle" x="211.35" y="-54.49" font-family="Linux libertine" font-size="10.00">pooler</text>
<text text-anchor="middle" x="211.35" y="-43.24" font-family="Linux libertine" font-size="10.00">(1, 256)</text>
<text text-anchor="middle" x="211.35" y="-31.99" font-family="Linux libertine" font-size="10.00">torch.float32</text>
</g>
<!-- _135/__getitem___4 -->
<g id="node4" class="node">
<title>_135/__getitem___4</title>
<ellipse fill="white" stroke="black" cx="286.35" cy="-592.03" rx="38.18" ry="23.86"/>
<text text-anchor="middle" x="286.35" y="-599.4" font-family="Linux libertine" font-size="10.00">__getitem__</text>
<text text-anchor="middle" x="286.35" y="-588.15" font-family="Linux libertine" font-size="10.00">(1, 1, 1, 64)</text>
<text text-anchor="middle" x="286.35" y="-576.9" font-family="Linux libertine" font-size="10.00">torch.float32</text>
</g>
<!-- _135/to_5 -->
<g id="node6" class="node">
<title>_135/to_5</title>
<ellipse fill="white" stroke="black" cx="286.35" cy="-497.05" rx="38.18" ry="23.86"/>
<text text-anchor="middle" x="286.35" y="-504.42" font-family="Linux libertine" font-size="10.00">to</text>
<text text-anchor="middle" x="286.35" y="-493.17" font-family="Linux libertine" font-size="10.00">(1, 1, 1, 64)</text>
<text text-anchor="middle" x="286.35" y="-481.92" font-family="Linux libertine" font-size="10.00">torch.float32</text>
</g>
<!-- _135/__getitem___4&#45;&gt;_135/to_5 -->
<g id="edge6" class="edge">
<title>_135/__getitem___4&#45;&gt;_135/to_5</title>
<path fill="none" stroke="black" d="M286.35,-568.04C286.35,-557.32 286.35,-544.32 286.35,-532.45"/>
<polygon fill="black" stroke="black" points="289.85,-532.6 286.35,-522.6 282.85,-532.6 289.85,-532.6"/>
<text text-anchor="middle" x="298.35" y="-540.66" font-family="Times,serif" font-size="10.00" fill="white">0 &#45;&gt; 0</text>
</g>
<!-- _135/encoder_123 -->
<g id="node5" class="node">
<title>_135/encoder_123</title>
<polygon fill="#ee00ee" fill-opacity="0.501961" stroke="black" points="255.44,-173.48 233.4,-210.22 189.3,-210.22 167.26,-173.48 189.3,-136.73 233.4,-136.73 255.44,-173.48"/>
<text text-anchor="middle" x="211.35" y="-186.48" font-family="Linux libertine" font-size="10.00">BertEncoder</text>
<text text-anchor="middle" x="211.35" y="-175.23" font-family="Linux libertine" font-size="10.00">encoder</text>
<text text-anchor="middle" x="211.35" y="-163.98" font-family="Linux libertine" font-size="10.00">(1, 64, 256)</text>
<text text-anchor="middle" x="211.35" y="-152.73" font-family="Linux libertine" font-size="10.00">torch.float32</text>
</g>
<!-- _135/encoder_123&#45;&gt;_135/pooler_134 -->
<g id="edge2" class="edge">
<title>_135/encoder_123&#45;&gt;_135/pooler_134</title>
<path fill="none" stroke="black" d="M211.35,-136.53C211.35,-125.47 211.35,-113.12 211.35,-101.41"/>
<polygon fill="black" stroke="black" points="214.85,-101.49 211.35,-91.49 207.85,-101.49 214.85,-101.49"/>
<text text-anchor="middle" x="223.35" y="-109.23" font-family="Times,serif" font-size="10.00" fill="white">0 &#45;&gt; 0</text>
</g>
<!-- _135/to_5&#45;&gt;_135/__rsub___6 -->
<g id="edge1" class="edge">
<title>_135/to_5&#45;&gt;_135/__rsub___6</title>
<path fill="none" stroke="black" d="M286.35,-473.06C286.35,-462.34 286.35,-449.34 286.35,-437.47"/>
<polygon fill="black" stroke="black" points="289.85,-437.62 286.35,-427.62 282.85,-437.62 289.85,-437.62"/>
<text text-anchor="middle" x="298.35" y="-445.68" font-family="Times,serif" font-size="10.00" fill="white">0 &#45;&gt; 0</text>
</g>
<!-- _135/embeddings_34 -->
<g id="node9" class="node">
<title>_135/embeddings_34</title>
<polygon fill="#ee00ee" fill-opacity="0.501961" stroke="black" points="230.14,-294.21 200.74,-330.95 141.96,-330.95 112.56,-294.21 141.96,-257.47 200.74,-257.47 230.14,-294.21"/>
<text text-anchor="middle" x="171.35" y="-307.21" font-family="Linux libertine" font-size="10.00">BertEmbeddings</text>
<text text-anchor="middle" x="171.35" y="-295.96" font-family="Linux libertine" font-size="10.00">embeddings</text>
<text text-anchor="middle" x="171.35" y="-284.71" font-family="Linux libertine" font-size="10.00">(1, 64, 256)</text>
<text text-anchor="middle" x="171.35" y="-273.46" font-family="Linux libertine" font-size="10.00">torch.float32</text>
</g>
<!-- _135/module_input_1&#45;&gt;_135/embeddings_34 -->
<g id="edge7" class="edge">
<title>_135/module_input_1&#45;&gt;_135/embeddings_34</title>
<path fill="none" stroke="black" d="M130.12,-379.14C135.48,-368.24 142.16,-354.64 148.57,-341.58"/>
<polygon fill="black" stroke="black" points="151.69,-343.16 152.96,-332.64 145.41,-340.08 151.69,-343.16"/>
<text text-anchor="middle" x="155.35" y="-350.7" font-family="Times,serif" font-size="10.00" fill="white">0 &#45;&gt; 0</text>
</g>
<!-- _135/torch_input_8 -->
<g id="node8" class="node">
<title>_135/torch_input_8</title>
<polygon fill="white" stroke="black" points="230.35,-418.94 176.35,-418.94 176.35,-385.19 230.35,-385.19 230.35,-418.94"/>
<text text-anchor="middle" x="203.35" y="-409.44" font-family="Linux libertine" font-size="10.00">torch.Tensor</text>
<text text-anchor="middle" x="203.35" y="-398.19" font-family="Linux libertine" font-size="10.00">(1, 64)</text>
<text text-anchor="middle" x="203.35" y="-386.94" font-family="Linux libertine" font-size="10.00">torch.int64</text>
</g>
<!-- _135/torch_input_8&#45;&gt;_135/embeddings_34 -->
<g id="edge8" class="edge">
<title>_135/torch_input_8&#45;&gt;_135/embeddings_34</title>
<path fill="none" stroke="black" d="M198.49,-384.99C195.03,-373.54 190.19,-357.53 185.55,-342.19"/>
<polygon fill="black" stroke="black" points="188.91,-341.22 182.67,-332.66 182.21,-343.24 188.91,-341.22"/>
<text text-anchor="middle" x="201.35" y="-350.7" font-family="Times,serif" font-size="10.00" fill="white">0 &#45;&gt; 1</text>
</g>
<!-- _135/embeddings_34&#45;&gt;_135/encoder_123 -->
<g id="edge4" class="edge">
<title>_135/embeddings_34&#45;&gt;_135/encoder_123</title>
<path fill="none" stroke="black" d="M183.46,-257.27C187.26,-245.98 191.52,-233.34 195.54,-221.41"/>
<polygon fill="black" stroke="black" points="198.78,-222.74 198.66,-212.15 192.15,-220.5 198.78,-222.74"/>
<text text-anchor="middle" x="204.35" y="-229.97" font-family="Times,serif" font-size="10.00" fill="white">0 &#45;&gt; 0</text>
</g>
<!-- _135/mul_7&#45;&gt;_135/encoder_123 -->
<g id="edge5" class="edge">
<title>_135/mul_7&#45;&gt;_135/encoder_123</title>
<path fill="none" stroke="black" d="M272.77,-271.71C263.58,-257.16 251.1,-237.41 239.79,-219.5"/>
<polygon fill="black" stroke="black" points="242.77,-217.66 234.47,-211.07 236.85,-221.4 242.77,-217.66"/>
<text text-anchor="middle" x="262.35" y="-229.97" font-family="Times,serif" font-size="10.00" fill="white">0 &#45;&gt; 1</text>
</g>
<!-- _135/torch_input_3 -->
<g id="node11" class="node">
<title>_135/torch_input_3</title>
<ellipse fill="white" stroke="black" cx="286.35" cy="-687.01" rx="38.18" ry="23.86"/>
<text text-anchor="middle" x="286.35" y="-694.38" font-family="Linux libertine" font-size="10.00">ones</text>
<text text-anchor="middle" x="286.35" y="-683.13" font-family="Linux libertine" font-size="10.00">(1, 64)</text>
<text text-anchor="middle" x="286.35" y="-671.88" font-family="Linux libertine" font-size="10.00">torch.float32</text>
</g>
<!-- _135/torch_input_3&#45;&gt;_135/__getitem___4 -->
<g id="edge3" class="edge">
<title>_135/torch_input_3&#45;&gt;_135/__getitem___4</title>
<path fill="none" stroke="black" d="M286.35,-663.02C286.35,-652.3 286.35,-639.3 286.35,-627.43"/>
<polygon fill="black" stroke="black" points="289.85,-627.58 286.35,-617.58 282.85,-627.58 289.85,-627.58"/>
<text text-anchor="middle" x="298.35" y="-635.64" font-family="Times,serif" font-size="10.00" fill="white">0 &#45;&gt; 0</text>
</g>
</g>
</svg>
