<?xml version="1.0" encoding="UTF-8" standalone="no"?>
<!DOCTYPE svg PUBLIC "-//W3C//DTD SVG 1.1//EN"
 "http://www.w3.org/Graphics/SVG/1.1/DTD/svg11.dtd">
<!-- Generated by graphviz version 9.0.0 (20230911.1827)
 -->
<!-- Pages: 1 -->
<svg width="351pt" height="200pt"
 viewBox="0.00 0.00 351.00 199.50" xmlns="http://www.w3.org/2000/svg" xmlns:xlink="http://www.w3.org/1999/xlink">
<g id="graph0" class="graph" transform="scale(1 1) rotate(0) translate(4 195.5)">
<polygon fill="white" stroke="none" points="-4,4 -4,-195.5 347,-195.5 347,4 -4,4"/>
<!-- _135 -->
<g id="node1" class="node">
<title>_135</title>
<polygon fill="#0000ff" fill-opacity="0.501961" stroke="black" points="343,-77 0,-77 0,0 343,0 343,-77"/>
<polygon fill="none" stroke="black" points="1,-1 1,-76 224,-76 224,-1 1,-1"/>
<text text-anchor="start" x="2.62" y="-40.25" font-family="Linux libertine" font-size="10.00">transformers.models.bert.modeling_bert.BertModel</text>
<text text-anchor="start" x="72" y="-29" font-family="Linux libertine" font-size="10.00">duration: 483.9 ms</text>
<polygon fill="none" stroke="black" points="225,-39 225,-76 342,-76 342,-39 225,-39"/>
<text text-anchor="start" x="268.5" y="-64.5" font-family="Linux libertine" font-size="10.00">Input 0</text>
<text text-anchor="start" x="269.62" y="-53.25" font-family="Linux libertine" font-size="10.00">(1, 64)</text>
<text text-anchor="start" x="260.62" y="-42" font-family="Linux libertine" font-size="10.00">torch.int64</text>
<polygon fill="none" stroke="black" points="225,-1 225,-38 283,-38 283,-1 225,-1"/>
<text text-anchor="start" x="235.25" y="-26.5" font-family="Linux libertine" font-size="10.00">Output 0</text>
<text text-anchor="start" x="229.25" y="-15.25" font-family="Linux libertine" font-size="10.00">(1, 64, 256)</text>
<text text-anchor="start" x="227" y="-4" font-family="Linux libertine" font-size="10.00">torch.float32</text>
<polygon fill="none" stroke="black" points="284,-1 284,-38 342,-38 342,-1 284,-1"/>
<text text-anchor="start" x="294.25" y="-26.5" font-family="Linux libertine" font-size="10.00">Output 1</text>
<text text-anchor="start" x="296.5" y="-15.25" font-family="Linux libertine" font-size="10.00">(1, 256)</text>
<text text-anchor="start" x="286" y="-4" font-family="Linux libertine" font-size="10.00">torch.float32</text>
</g>
<!-- torch_input_0 -->
<g id="node2" class="node">
<title>torch_input_0</title>
<polygon fill="#dcdcdc" stroke="black" points="323.25,-191.5 243.75,-191.5 243.75,-124.25 323.25,-124.25 323.25,-191.5"/>
<polygon fill="none" stroke="black" points="244.75,-164 244.75,-190.5 322.25,-190.5 322.25,-164 244.75,-164"/>
<text text-anchor="start" x="256.5" y="-179" font-family="Linux libertine" font-size="10.00">torch.randint</text>
<text text-anchor="start" x="246.75" y="-167.75" font-family="Linux libertine" font-size="10.00">duration: 65.1 µs</text>
<polygon fill="none" stroke="black" points="244.75,-125.25 244.75,-163 322.25,-163 322.25,-125.25 244.75,-125.25"/>
<text text-anchor="start" x="264.75" y="-151.5" font-family="Linux libertine" font-size="10.00">Output 0</text>
<text text-anchor="start" x="269.62" y="-140.25" font-family="Linux libertine" font-size="10.00">(1, 64)</text>
<text text-anchor="start" x="260.62" y="-129" font-family="Linux libertine" font-size="10.00">torch.int64</text>
</g>
<!-- torch_input_0&#45;&gt;_135 -->
<g id="edge1" class="edge">
<title>torch_input_0:#0&#45;&gt;_135:$0</title>
<path fill="none" stroke="black" d="M283.5,-124.25C283.5,-107.68 283.5,-100.92 283.5,-88.48"/>
<polygon fill="black" stroke="black" points="287,-88.51 283.5,-78.51 280,-88.51 287,-88.51"/>
<text text-anchor="middle" x="295.5" y="-96.75" font-family="Times,serif" font-size="10.00">0 &#45;&gt; 0</text>
</g>
</g>
</svg>
