<?xml version="1.0" encoding="UTF-8" standalone="no"?>
<!DOCTYPE svg PUBLIC "-//W3C//DTD SVG 1.1//EN"
 "http://www.w3.org/Graphics/SVG/1.1/DTD/svg11.dtd">
<!-- Generated by graphviz version 9.0.0 (20230911.1827)
 -->
<!-- Pages: 1 -->
<svg width="204pt" height="195pt"
 viewBox="0.00 0.00 203.96 194.66" xmlns="http://www.w3.org/2000/svg" xmlns:xlink="http://www.w3.org/1999/xlink">
<g id="graph0" class="graph" transform="scale(1 1) rotate(0) translate(4 190.66)">
<polygon fill="white" stroke="none" points="-4,4 -4,-190.66 199.96,-190.66 199.96,4 -4,4"/>
<!-- _135 -->
<g id="node1" class="node">
<title>_135</title>
<polygon fill="#0000ff" fill-opacity="0.501961" stroke="black" points="195.96,-37.35 146.97,-74.71 48.99,-74.71 0,-37.35 48.99,0 146.97,0 195.96,-37.35"/>
<text text-anchor="middle" x="97.98" y="-50.73" font-family="Linux libertine" font-size="10.00">BertModel</text>
<text text-anchor="middle" x="97.98" y="-27.48" font-family="Linux libertine" font-size="10.00">((1, 64, 256), (1, 256))</text>
<text text-anchor="middle" x="97.98" y="-16.23" font-family="Linux libertine" font-size="10.00">(torch.float32, torch.float32)</text>
</g>
<!-- torch_input_0 -->
<g id="node2" class="node">
<title>torch_input_0</title>
<ellipse fill="white" stroke="black" cx="97.98" cy="-154.31" rx="32.35" ry="32.35"/>
<text text-anchor="middle" x="97.98" y="-161.68" font-family="Linux libertine" font-size="10.00">randint</text>
<text text-anchor="middle" x="97.98" y="-150.43" font-family="Linux libertine" font-size="10.00">(1, 64)</text>
<text text-anchor="middle" x="97.98" y="-139.18" font-family="Linux libertine" font-size="10.00">torch.int64</text>
</g>
<!-- torch_input_0&#45;&gt;_135 -->
<g id="edge1" class="edge">
<title>torch_input_0&#45;&gt;_135</title>
<path fill="none" stroke="black" d="M97.98,-121.59C97.98,-110.61 97.98,-98.05 97.98,-86.08"/>
<polygon fill="black" stroke="black" points="101.48,-86.36 97.98,-76.36 94.48,-86.36 101.48,-86.36"/>
<text text-anchor="middle" x="109.98" y="-94.46" font-family="Times,serif" font-size="10.00">0 &#45;&gt; 0</text>
</g>
</g>
</svg>
