<?xml version="1.0" encoding="UTF-8" standalone="no"?>
<!DOCTYPE svg PUBLIC "-//W3C//DTD SVG 1.1//EN"
 "http://www.w3.org/Graphics/SVG/1.1/DTD/svg11.dtd">
<!-- Generated by graphviz version 9.0.0 (20230911.1827)
 -->
<!-- Pages: 1 -->
<svg width="486pt" height="883pt"
 viewBox="0.00 0.00 486.00 882.50" xmlns="http://www.w3.org/2000/svg" xmlns:xlink="http://www.w3.org/1999/xlink">
<g id="graph0" class="graph" transform="scale(1 1) rotate(0) translate(4 878.5)">
<polygon fill="white" stroke="none" points="-4,4 -4,-878.5 482,-878.5 482,4 -4,4"/>
<g id="clust1" class="cluster">
<title>_135</title>
<polygon fill="#0000ff" fill-opacity="0.501961" stroke="black" points="62,-8 62,-866.5 470,-866.5 470,-8 62,-8"/>
<text text-anchor="middle" x="266" y="-849.2" font-family="Times,serif" font-size="14.00">BertModel</text>
<text text-anchor="middle" x="266" y="-832.7" font-family="Times,serif" font-size="14.00">duration: 0.494765043s</text>
</g>
<!-- torch_input_0 -->
<g id="node1" class="node">
<title>torch_input_0</title>
<polygon fill="#dcdcdc" stroke="black" points="54,-579.5 0,-579.5 0,-523.5 54,-523.5 54,-579.5"/>
<polygon fill="none" stroke="black" points="2.12,-563.25 2.12,-578.5 51.88,-578.5 51.88,-563.25 2.12,-563.25"/>
<text text-anchor="start" x="12.38" y="-567" font-family="Linux libertine" font-size="10.00">randint</text>
<polygon fill="none" stroke="black" points="2.12,-524.5 2.12,-562.25 51.88,-562.25 51.88,-524.5 2.12,-524.5"/>
<text text-anchor="start" x="6.75" y="-550.75" font-family="Linux libertine" font-size="10.00">Output: 0</text>
<text text-anchor="start" x="13.12" y="-539.5" font-family="Linux libertine" font-size="10.00">(1, 64)</text>
<text text-anchor="start" x="4.12" y="-528.25" font-family="Linux libertine" font-size="10.00">torch.int64</text>
</g>
<!-- _135/module_input_1 -->
<g id="node5" class="node">
<title>_135/module_input_1</title>
<polygon fill="#dcdcdc" stroke="black" points="153.62,-460.88 70.38,-460.88 70.38,-393.62 153.62,-393.62 153.62,-460.88"/>
<polygon fill="none" stroke="black" points="71.38,-433.38 71.38,-459.88 152.62,-459.88 152.62,-433.38 71.38,-433.38"/>
<text text-anchor="start" x="73.38" y="-448.38" font-family="Linux libertine" font-size="10.00">TorchModuleInput</text>
<text text-anchor="start" x="77.5" y="-437.12" font-family="Linux libertine" font-size="10.00">name: input_ids</text>
<polygon fill="none" stroke="black" points="71.38,-394.62 71.38,-432.38 152.62,-432.38 152.62,-394.62 71.38,-394.62"/>
<text text-anchor="start" x="91.75" y="-420.88" font-family="Linux libertine" font-size="10.00">Output: 0</text>
<text text-anchor="start" x="98.12" y="-409.62" font-family="Linux libertine" font-size="10.00">(1, 64)</text>
<text text-anchor="start" x="89.12" y="-398.38" font-family="Linux libertine" font-size="10.00">torch.int64</text>
</g>
<!-- torch_input_0&#45;&gt;_135/module_input_1 -->
<g id="edge10" class="edge">
<title>torch_input_0&#45;&gt;_135/module_input_1</title>
<path fill="none" stroke="black" d="M46.08,-523.06C56.81,-507.62 70.45,-488.01 82.53,-470.63"/>
<polygon fill="black" stroke="black" points="85.36,-472.7 88.19,-462.49 79.61,-468.7 85.36,-472.7"/>
<text text-anchor="middle" x="84" y="-485.5" font-family="Times,serif" font-size="10.00">0 &#45;&gt; 0</text>
</g>
<!-- _135/torch_input_8 -->
<g id="node2" class="node">
<title>_135/torch_input_8</title>
<polygon fill="#dcdcdc" stroke="black" points="232,-455.25 172,-455.25 172,-399.25 232,-399.25 232,-455.25"/>
<polygon fill="none" stroke="black" points="173,-439 173,-454.25 231,-454.25 231,-439 173,-439"/>
<text text-anchor="start" x="175" y="-442.75" font-family="Linux libertine" font-size="10.00">torch.Tensor</text>
<polygon fill="none" stroke="black" points="173,-400.25 173,-438 231,-438 231,-400.25 173,-400.25"/>
<text text-anchor="start" x="181.75" y="-426.5" font-family="Linux libertine" font-size="10.00">Output: 0</text>
<text text-anchor="start" x="188.12" y="-415.25" font-family="Linux libertine" font-size="10.00">(1, 64)</text>
<text text-anchor="start" x="179.12" y="-404" font-family="Linux libertine" font-size="10.00">torch.int64</text>
</g>
<!-- _135/embeddings_34 -->
<g id="node3" class="node">
<title>_135/embeddings_34</title>
<polygon fill="#ee00ee" fill-opacity="0.501961" stroke="black" points="277.5,-341.5 70.5,-341.5 70.5,-264.5 277.5,-264.5 277.5,-341.5"/>
<polygon fill="none" stroke="black" points="71.5,-265.5 71.5,-340.5 176.5,-340.5 176.5,-265.5 71.5,-265.5"/>
<text text-anchor="start" x="88" y="-310.38" font-family="Linux libertine" font-size="10.00">BertEmbeddings</text>
<text text-anchor="start" x="82.75" y="-299.12" font-family="Linux libertine" font-size="10.00">name: embeddings</text>
<text text-anchor="start" x="73.38" y="-287.88" font-family="Linux libertine" font-size="10.00">duration: 0.003648043s</text>
<polygon fill="none" stroke="black" points="177.5,-303.5 177.5,-340.5 226.5,-340.5 226.5,-303.5 177.5,-303.5"/>
<text text-anchor="start" x="185.5" y="-329" font-family="Linux libertine" font-size="10.00">Input: 0</text>
<text text-anchor="start" x="188.12" y="-317.75" font-family="Linux libertine" font-size="10.00">(1, 64)</text>
<text text-anchor="start" x="179.12" y="-306.5" font-family="Linux libertine" font-size="10.00">torch.int64</text>
<polygon fill="none" stroke="black" points="227.5,-303.5 227.5,-340.5 276.5,-340.5 276.5,-303.5 227.5,-303.5"/>
<text text-anchor="start" x="235.5" y="-329" font-family="Linux libertine" font-size="10.00">Input: 1</text>
<text text-anchor="start" x="238.12" y="-317.75" font-family="Linux libertine" font-size="10.00">(1, 64)</text>
<text text-anchor="start" x="229.12" y="-306.5" font-family="Linux libertine" font-size="10.00">torch.int64</text>
<polygon fill="none" stroke="black" points="177.5,-265.5 177.5,-302.5 276.5,-302.5 276.5,-265.5 177.5,-265.5"/>
<text text-anchor="start" x="206.75" y="-291" font-family="Linux libertine" font-size="10.00">Output: 0</text>
<text text-anchor="start" x="202.25" y="-279.75" font-family="Linux libertine" font-size="10.00">(1, 64, 256)</text>
<text text-anchor="start" x="200" y="-268.5" font-family="Linux libertine" font-size="10.00">torch.float32</text>
</g>
<!-- _135/torch_input_8&#45;&gt;_135/embeddings_34 -->
<g id="edge1" class="edge">
<title>_135/torch_input_8&#45;&gt;_135/embeddings_34</title>
<path fill="none" stroke="black" d="M195.72,-398.81C192.6,-385.22 188.75,-368.39 185.15,-352.7"/>
<polygon fill="black" stroke="black" points="188.58,-351.98 182.94,-343.02 181.76,-353.55 188.58,-351.98"/>
<text text-anchor="middle" x="200" y="-361.25" font-family="Times,serif" font-size="10.00" fill="white">0 &#45;&gt; 1</text>
</g>
<!-- _135/encoder_123 -->
<g id="node11" class="node">
<title>_135/encoder_123</title>
<polygon fill="#ee00ee" fill-opacity="0.501961" stroke="black" points="353.5,-217.25 128.5,-217.25 128.5,-140.25 353.5,-140.25 353.5,-217.25"/>
<polygon fill="none" stroke="black" points="129.5,-141.25 129.5,-216.25 234.5,-216.25 234.5,-141.25 129.5,-141.25"/>
<text text-anchor="start" x="155" y="-186.12" font-family="Linux libertine" font-size="10.00">BertEncoder</text>
<text text-anchor="start" x="149.75" y="-174.88" font-family="Linux libertine" font-size="10.00">name: encoder</text>
<text text-anchor="start" x="131.38" y="-163.62" font-family="Linux libertine" font-size="10.00">duration: 0.066025972s</text>
<polygon fill="none" stroke="black" points="235.5,-179.25 235.5,-216.25 293.5,-216.25 293.5,-179.25 235.5,-179.25"/>
<text text-anchor="start" x="248" y="-204.75" font-family="Linux libertine" font-size="10.00">Input: 0</text>
<text text-anchor="start" x="239.75" y="-193.5" font-family="Linux libertine" font-size="10.00">(1, 64, 256)</text>
<text text-anchor="start" x="237.5" y="-182.25" font-family="Linux libertine" font-size="10.00">torch.float32</text>
<polygon fill="none" stroke="black" points="294.5,-179.25 294.5,-216.25 352.5,-216.25 352.5,-179.25 294.5,-179.25"/>
<text text-anchor="start" x="307" y="-204.75" font-family="Linux libertine" font-size="10.00">Input: 1</text>
<text text-anchor="start" x="298.38" y="-193.5" font-family="Linux libertine" font-size="10.00">(1, 1, 1, 64)</text>
<text text-anchor="start" x="296.5" y="-182.25" font-family="Linux libertine" font-size="10.00">torch.float32</text>
<polygon fill="none" stroke="black" points="235.5,-141.25 235.5,-178.25 352.5,-178.25 352.5,-141.25 235.5,-141.25"/>
<text text-anchor="start" x="273.75" y="-166.75" font-family="Linux libertine" font-size="10.00">Output: 0</text>
<text text-anchor="start" x="269.25" y="-155.5" font-family="Linux libertine" font-size="10.00">(1, 64, 256)</text>
<text text-anchor="start" x="267" y="-144.25" font-family="Linux libertine" font-size="10.00">torch.float32</text>
</g>
<!-- _135/embeddings_34&#45;&gt;_135/encoder_123 -->
<g id="edge8" class="edge">
<title>_135/embeddings_34&#45;&gt;_135/encoder_123</title>
<path fill="none" stroke="black" d="M194.65,-264.32C201.02,-252.7 208.12,-239.75 214.81,-227.55"/>
<polygon fill="black" stroke="black" points="217.84,-229.29 219.58,-218.84 211.7,-225.93 217.84,-229.29"/>
<text text-anchor="middle" x="221" y="-237" font-family="Times,serif" font-size="10.00" fill="white">0 &#45;&gt; 0</text>
</g>
<!-- _135/mul_7 -->
<g id="node4" class="node">
<title>_135/mul_7</title>
<polygon fill="#dcdcdc" stroke="black" points="462,-341.5 296,-341.5 296,-264.5 462,-264.5 462,-341.5"/>
<polygon fill="none" stroke="black" points="297,-265.5 297,-340.5 402,-340.5 402,-265.5 297,-265.5"/>
<text text-anchor="start" x="341.62" y="-304.75" font-family="Linux libertine" font-size="10.00">mul</text>
<text text-anchor="start" x="298.88" y="-293.5" font-family="Linux libertine" font-size="10.00">duration: 0.000021219s</text>
<polygon fill="none" stroke="black" points="403,-303.5 403,-340.5 461,-340.5 461,-303.5 403,-303.5"/>
<text text-anchor="start" x="415.5" y="-329" font-family="Linux libertine" font-size="10.00">Input: 0</text>
<text text-anchor="start" x="406.88" y="-317.75" font-family="Linux libertine" font-size="10.00">(1, 1, 1, 64)</text>
<text text-anchor="start" x="405" y="-306.5" font-family="Linux libertine" font-size="10.00">torch.float32</text>
<polygon fill="none" stroke="black" points="403,-265.5 403,-302.5 461,-302.5 461,-265.5 403,-265.5"/>
<text text-anchor="start" x="411.75" y="-291" font-family="Linux libertine" font-size="10.00">Output: 0</text>
<text text-anchor="start" x="406.88" y="-279.75" font-family="Linux libertine" font-size="10.00">(1, 1, 1, 64)</text>
<text text-anchor="start" x="405" y="-268.5" font-family="Linux libertine" font-size="10.00">torch.float32</text>
</g>
<!-- _135/mul_7&#45;&gt;_135/encoder_123 -->
<g id="edge9" class="edge">
<title>_135/mul_7&#45;&gt;_135/encoder_123</title>
<path fill="none" stroke="black" d="M336.47,-264.32C322.43,-251.89 306.68,-237.93 292.07,-224.99"/>
<polygon fill="black" stroke="black" points="294.57,-222.53 284.76,-218.52 289.93,-227.77 294.57,-222.53"/>
<text text-anchor="middle" x="326" y="-237" font-family="Times,serif" font-size="10.00" fill="white">0 &#45;&gt; 1</text>
</g>
<!-- _135/module_input_1&#45;&gt;_135/embeddings_34 -->
<g id="edge2" class="edge">
<title>_135/module_input_1&#45;&gt;_135/embeddings_34</title>
<path fill="none" stroke="black" d="M128.78,-393.17C135.24,-380.42 142.76,-365.6 149.79,-351.74"/>
<polygon fill="black" stroke="black" points="152.71,-353.72 154.11,-343.21 146.47,-350.55 152.71,-353.72"/>
<text text-anchor="middle" x="156" y="-361.25" font-family="Times,serif" font-size="10.00" fill="white">0 &#45;&gt; 0</text>
</g>
<!-- _135/__getitem___4 -->
<g id="node6" class="node">
<title>_135/__getitem___4</title>
<polygon fill="#dcdcdc" stroke="black" points="462,-714.25 296,-714.25 296,-637.25 462,-637.25 462,-714.25"/>
<polygon fill="none" stroke="black" points="297,-638.25 297,-713.25 402,-713.25 402,-638.25 297,-638.25"/>
<text text-anchor="start" x="322.88" y="-677.5" font-family="Linux libertine" font-size="10.00">__getitem__</text>
<text text-anchor="start" x="298.88" y="-666.25" font-family="Linux libertine" font-size="10.00">duration: 0.000013828s</text>
<polygon fill="none" stroke="black" points="403,-676.25 403,-713.25 461,-713.25 461,-676.25 403,-676.25"/>
<text text-anchor="start" x="415.5" y="-701.75" font-family="Linux libertine" font-size="10.00">Input: 0</text>
<text text-anchor="start" x="418.12" y="-690.5" font-family="Linux libertine" font-size="10.00">(1, 64)</text>
<text text-anchor="start" x="405" y="-679.25" font-family="Linux libertine" font-size="10.00">torch.float32</text>
<polygon fill="none" stroke="black" points="403,-638.25 403,-675.25 461,-675.25 461,-638.25 403,-638.25"/>
<text text-anchor="start" x="411.75" y="-663.75" font-family="Linux libertine" font-size="10.00">Output: 0</text>
<text text-anchor="start" x="406.88" y="-652.5" font-family="Linux libertine" font-size="10.00">(1, 1, 1, 64)</text>
<text text-anchor="start" x="405" y="-641.25" font-family="Linux libertine" font-size="10.00">torch.float32</text>
</g>
<!-- _135/to_5 -->
<g id="node7" class="node">
<title>_135/to_5</title>
<polygon fill="#dcdcdc" stroke="black" points="462,-590 296,-590 296,-513 462,-513 462,-590"/>
<polygon fill="none" stroke="black" points="297,-514 297,-589 402,-589 402,-514 297,-514"/>
<text text-anchor="start" x="345.38" y="-553.25" font-family="Linux libertine" font-size="10.00">to</text>
<text text-anchor="start" x="298.88" y="-542" font-family="Linux libertine" font-size="10.00">duration: 0.000004292s</text>
<polygon fill="none" stroke="black" points="403,-552 403,-589 461,-589 461,-552 403,-552"/>
<text text-anchor="start" x="415.5" y="-577.5" font-family="Linux libertine" font-size="10.00">Input: 0</text>
<text text-anchor="start" x="406.88" y="-566.25" font-family="Linux libertine" font-size="10.00">(1, 1, 1, 64)</text>
<text text-anchor="start" x="405" y="-555" font-family="Linux libertine" font-size="10.00">torch.float32</text>
<polygon fill="none" stroke="black" points="403,-514 403,-551 461,-551 461,-514 403,-514"/>
<text text-anchor="start" x="411.75" y="-539.5" font-family="Linux libertine" font-size="10.00">Output: 0</text>
<text text-anchor="start" x="406.88" y="-528.25" font-family="Linux libertine" font-size="10.00">(1, 1, 1, 64)</text>
<text text-anchor="start" x="405" y="-517" font-family="Linux libertine" font-size="10.00">torch.float32</text>
</g>
<!-- _135/__getitem___4&#45;&gt;_135/to_5 -->
<g id="edge5" class="edge">
<title>_135/__getitem___4&#45;&gt;_135/to_5</title>
<path fill="none" stroke="black" d="M379,-637.07C379,-625.92 379,-613.54 379,-601.76"/>
<polygon fill="black" stroke="black" points="382.5,-601.78 379,-591.78 375.5,-601.78 382.5,-601.78"/>
<text text-anchor="middle" x="391" y="-609.75" font-family="Times,serif" font-size="10.00" fill="white">0 &#45;&gt; 0</text>
</g>
<!-- _135/__rsub___6 -->
<g id="node10" class="node">
<title>_135/__rsub___6</title>
<polygon fill="#dcdcdc" stroke="black" points="462,-465.75 296,-465.75 296,-388.75 462,-388.75 462,-465.75"/>
<polygon fill="none" stroke="black" points="297,-389.75 297,-464.75 402,-464.75 402,-389.75 297,-389.75"/>
<text text-anchor="start" x="329.62" y="-429" font-family="Linux libertine" font-size="10.00">__rsub__</text>
<text text-anchor="start" x="298.88" y="-417.75" font-family="Linux libertine" font-size="10.00">duration: 0.000055075s</text>
<polygon fill="none" stroke="black" points="403,-427.75 403,-464.75 461,-464.75 461,-427.75 403,-427.75"/>
<text text-anchor="start" x="415.5" y="-453.25" font-family="Linux libertine" font-size="10.00">Input: 0</text>
<text text-anchor="start" x="406.88" y="-442" font-family="Linux libertine" font-size="10.00">(1, 1, 1, 64)</text>
<text text-anchor="start" x="405" y="-430.75" font-family="Linux libertine" font-size="10.00">torch.float32</text>
<polygon fill="none" stroke="black" points="403,-389.75 403,-426.75 461,-426.75 461,-389.75 403,-389.75"/>
<text text-anchor="start" x="411.75" y="-415.25" font-family="Linux libertine" font-size="10.00">Output: 0</text>
<text text-anchor="start" x="406.88" y="-404" font-family="Linux libertine" font-size="10.00">(1, 1, 1, 64)</text>
<text text-anchor="start" x="405" y="-392.75" font-family="Linux libertine" font-size="10.00">torch.float32</text>
</g>
<!-- _135/to_5&#45;&gt;_135/__rsub___6 -->
<g id="edge7" class="edge">
<title>_135/to_5&#45;&gt;_135/__rsub___6</title>
<path fill="none" stroke="black" d="M379,-512.82C379,-501.67 379,-489.29 379,-477.51"/>
<polygon fill="black" stroke="black" points="382.5,-477.53 379,-467.53 375.5,-477.53 382.5,-477.53"/>
<text text-anchor="middle" x="391" y="-485.5" font-family="Times,serif" font-size="10.00" fill="white">0 &#45;&gt; 0</text>
</g>
<!-- _135/torch_input_3 -->
<g id="node8" class="node">
<title>_135/torch_input_3</title>
<polygon fill="#dcdcdc" stroke="black" points="409,-817.5 349,-817.5 349,-761.5 409,-761.5 409,-817.5"/>
<polygon fill="none" stroke="black" points="350,-801.25 350,-816.5 408,-816.5 408,-801.25 350,-801.25"/>
<text text-anchor="start" x="368.5" y="-805" font-family="Linux libertine" font-size="10.00">ones</text>
<polygon fill="none" stroke="black" points="350,-762.5 350,-800.25 408,-800.25 408,-762.5 350,-762.5"/>
<text text-anchor="start" x="358.75" y="-788.75" font-family="Linux libertine" font-size="10.00">Output: 0</text>
<text text-anchor="start" x="365.12" y="-777.5" font-family="Linux libertine" font-size="10.00">(1, 64)</text>
<text text-anchor="start" x="352" y="-766.25" font-family="Linux libertine" font-size="10.00">torch.float32</text>
</g>
<!-- _135/torch_input_3&#45;&gt;_135/__getitem___4 -->
<g id="edge4" class="edge">
<title>_135/torch_input_3&#45;&gt;_135/__getitem___4</title>
<path fill="none" stroke="black" d="M379,-761.16C379,-750.49 379,-737.91 379,-725.78"/>
<polygon fill="black" stroke="black" points="382.5,-725.86 379,-715.86 375.5,-725.86 382.5,-725.86"/>
<text text-anchor="middle" x="391" y="-734" font-family="Times,serif" font-size="10.00" fill="white">0 &#45;&gt; 0</text>
</g>
<!-- _135/pooler_134 -->
<g id="node9" class="node">
<title>_135/pooler_134</title>
<polygon fill="#ee00ee" fill-opacity="0.501961" stroke="black" points="324,-93 158,-93 158,-16 324,-16 324,-93"/>
<polygon fill="none" stroke="black" points="159,-17 159,-92 264,-92 264,-17 159,-17"/>
<text text-anchor="start" x="188.62" y="-61.88" font-family="Linux libertine" font-size="10.00">BertPooler</text>
<text text-anchor="start" x="183.38" y="-50.62" font-family="Linux libertine" font-size="10.00">name: pooler</text>
<text text-anchor="start" x="160.88" y="-39.38" font-family="Linux libertine" font-size="10.00">duration: 0.001268148s</text>
<polygon fill="none" stroke="black" points="265,-55 265,-92 323,-92 323,-55 265,-55"/>
<text text-anchor="start" x="277.5" y="-80.5" font-family="Linux libertine" font-size="10.00">Input: 0</text>
<text text-anchor="start" x="269.25" y="-69.25" font-family="Linux libertine" font-size="10.00">(1, 64, 256)</text>
<text text-anchor="start" x="267" y="-58" font-family="Linux libertine" font-size="10.00">torch.float32</text>
<polygon fill="none" stroke="black" points="265,-17 265,-54 323,-54 323,-17 265,-17"/>
<text text-anchor="start" x="273.75" y="-42.5" font-family="Linux libertine" font-size="10.00">Output: 0</text>
<text text-anchor="start" x="277.5" y="-31.25" font-family="Linux libertine" font-size="10.00">(1, 256)</text>
<text text-anchor="start" x="267" y="-20" font-family="Linux libertine" font-size="10.00">torch.float32</text>
</g>
<!-- _135/__rsub___6&#45;&gt;_135/mul_7 -->
<g id="edge3" class="edge">
<title>_135/__rsub___6&#45;&gt;_135/mul_7</title>
<path fill="none" stroke="black" d="M379,-388.57C379,-377.42 379,-365.04 379,-353.26"/>
<polygon fill="black" stroke="black" points="382.5,-353.28 379,-343.28 375.5,-353.28 382.5,-353.28"/>
<text text-anchor="middle" x="391" y="-361.25" font-family="Times,serif" font-size="10.00" fill="white">0 &#45;&gt; 0</text>
</g>
<!-- _135/encoder_123&#45;&gt;_135/pooler_134 -->
<g id="edge6" class="edge">
<title>_135/encoder_123&#45;&gt;_135/pooler_134</title>
<path fill="none" stroke="black" d="M241,-140.07C241,-128.92 241,-116.54 241,-104.76"/>
<polygon fill="black" stroke="black" points="244.5,-104.78 241,-94.78 237.5,-104.78 244.5,-104.78"/>
<text text-anchor="middle" x="253" y="-112.75" font-family="Times,serif" font-size="10.00" fill="white">0 &#45;&gt; 0</text>
</g>
</g>
</svg>
