<?xml version="1.0" encoding="UTF-8" standalone="no"?>
<!DOCTYPE svg PUBLIC "-//W3C//DTD SVG 1.1//EN"
 "http://www.w3.org/Graphics/SVG/1.1/DTD/svg11.dtd">
<!-- Generated by graphviz version 9.0.0 (20230911.1827)
 -->
<!-- Pages: 1 -->
<svg width="348pt" height="877pt"
 viewBox="0.00 0.00 348.35 876.81" xmlns="http://www.w3.org/2000/svg" xmlns:xlink="http://www.w3.org/1999/xlink">
<g id="graph0" class="graph" transform="scale(1 1) rotate(0) translate(4 872.81)">
<polygon fill="white" stroke="none" points="-4,4 -4,-872.81 344.35,-872.81 344.35,4 -4,4"/>
<g id="clust1" class="cluster">
<title>_135</title>
<polygon fill="#0000ff" fill-opacity="0.501961" stroke="black" points="8,-8 8,-860.81 268,-860.81 268,-8 8,-8"/>
<text text-anchor="middle" x="138" y="-843.51" font-family="Times,serif" font-size="14.00">BertModel</text>
</g>
<!-- _135/torch_input_8 -->
<g id="node1" class="node">
<title>_135/torch_input_8</title>
<polygon fill="white" stroke="black" points="260,-436.15 206,-436.15 206,-402.4 260,-402.4 260,-436.15"/>
<text text-anchor="middle" x="233" y="-426.65" font-family="Linux libertine" font-size="10.00">torch.Tensor</text>
<text text-anchor="middle" x="233" y="-415.4" font-family="Linux libertine" font-size="10.00">(1, 64)</text>
<text text-anchor="middle" x="233" y="-404.15" font-family="Linux libertine" font-size="10.00">torch.int64</text>
</g>
<!-- _135/embeddings_34 -->
<g id="node2" class="node">
<title>_135/embeddings_34</title>
<polygon fill="#ee00ee" fill-opacity="0.501961" stroke="black" points="227.79,-295.65 198.39,-332.4 139.61,-332.4 110.21,-295.65 139.61,-258.91 198.39,-258.91 227.79,-295.65"/>
<text text-anchor="middle" x="169" y="-308.65" font-family="Linux libertine" font-size="10.00">BertEmbeddings</text>
<text text-anchor="middle" x="169" y="-297.4" font-family="Linux libertine" font-size="10.00">embeddings</text>
<text text-anchor="middle" x="169" y="-286.15" font-family="Linux libertine" font-size="10.00">(1, 64, 256)</text>
<text text-anchor="middle" x="169" y="-274.9" font-family="Linux libertine" font-size="10.00">torch.float32</text>
</g>
<!-- _135/torch_input_8&#45;&gt;_135/embeddings_34 -->
<g id="edge1" class="edge">
<title>_135/torch_input_8&#45;&gt;_135/embeddings_34</title>
<path fill="none" stroke="black" d="M224.5,-402.12C216.55,-387.02 204.29,-363.72 193.32,-342.86"/>
<polygon fill="black" stroke="black" points="196.52,-341.42 188.76,-334.2 190.32,-344.68 196.52,-341.42"/>
<text text-anchor="middle" x="214" y="-353.59" font-family="Times,serif" font-size="10.00" fill="white">0 &#45;&gt; 1</text>
</g>
<!-- _135/encoder_123 -->
<g id="node4" class="node">
<title>_135/encoder_123</title>
<polygon fill="#ee00ee" fill-opacity="0.501961" stroke="black" points="141.09,-173.48 119.05,-210.22 74.95,-210.22 52.91,-173.48 74.95,-136.73 119.05,-136.73 141.09,-173.48"/>
<text text-anchor="middle" x="97" y="-186.48" font-family="Linux libertine" font-size="10.00">BertEncoder</text>
<text text-anchor="middle" x="97" y="-175.23" font-family="Linux libertine" font-size="10.00">encoder</text>
<text text-anchor="middle" x="97" y="-163.98" font-family="Linux libertine" font-size="10.00">(1, 64, 256)</text>
<text text-anchor="middle" x="97" y="-152.73" font-family="Linux libertine" font-size="10.00">torch.float32</text>
</g>
<!-- _135/embeddings_34&#45;&gt;_135/encoder_123 -->
<g id="edge4" class="edge">
<title>_135/embeddings_34&#45;&gt;_135/encoder_123</title>
<path fill="none" stroke="black" d="M147.4,-258.6C140.14,-246.48 131.94,-232.79 124.3,-220.04"/>
<polygon fill="black" stroke="black" points="127.51,-218.59 119.37,-211.81 121.5,-222.18 127.51,-218.59"/>
<text text-anchor="middle" x="147" y="-229.97" font-family="Times,serif" font-size="10.00" fill="white">0 &#45;&gt; 0</text>
</g>
<!-- _135/__getitem___4 -->
<g id="node3" class="node">
<title>_135/__getitem___4</title>
<ellipse fill="white" stroke="black" cx="54" cy="-666.51" rx="38.18" ry="38.18"/>
<text text-anchor="middle" x="54" y="-673.88" font-family="Linux libertine" font-size="10.00">__getitem__</text>
<text text-anchor="middle" x="54" y="-662.63" font-family="Linux libertine" font-size="10.00">(1, 1, 1, 64)</text>
<text text-anchor="middle" x="54" y="-651.38" font-family="Linux libertine" font-size="10.00">torch.float32</text>
</g>
<!-- _135/to_5 -->
<g id="node7" class="node">
<title>_135/to_5</title>
<ellipse fill="white" stroke="black" cx="54" cy="-542.89" rx="38.18" ry="38.18"/>
<text text-anchor="middle" x="54" y="-550.26" font-family="Linux libertine" font-size="10.00">to</text>
<text text-anchor="middle" x="54" y="-539.01" font-family="Linux libertine" font-size="10.00">(1, 1, 1, 64)</text>
<text text-anchor="middle" x="54" y="-527.76" font-family="Linux libertine" font-size="10.00">torch.float32</text>
</g>
<!-- _135/__getitem___4&#45;&gt;_135/to_5 -->
<g id="edge8" class="edge">
<title>_135/__getitem___4&#45;&gt;_135/to_5</title>
<path fill="none" stroke="black" d="M54,-628.02C54,-616.93 54,-604.61 54,-592.9"/>
<polygon fill="black" stroke="black" points="57.5,-592.97 54,-582.97 50.5,-592.97 57.5,-592.97"/>
<text text-anchor="middle" x="66" y="-600.82" font-family="Times,serif" font-size="10.00" fill="white">0 &#45;&gt; 0</text>
</g>
<!-- _135/pooler_134 -->
<g id="node8" class="node">
<title>_135/pooler_134</title>
<polygon fill="#ee00ee" fill-opacity="0.501961" stroke="black" points="141.09,-52.74 119.05,-89.48 74.95,-89.48 52.91,-52.74 74.95,-16 119.05,-16 141.09,-52.74"/>
<text text-anchor="middle" x="97" y="-65.74" font-family="Linux libertine" font-size="10.00">BertPooler</text>
<text text-anchor="middle" x="97" y="-54.49" font-family="Linux libertine" font-size="10.00">pooler</text>
<text text-anchor="middle" x="97" y="-43.24" font-family="Linux libertine" font-size="10.00">(1, 256)</text>
<text text-anchor="middle" x="97" y="-31.99" font-family="Linux libertine" font-size="10.00">torch.float32</text>
</g>
<!-- _135/encoder_123&#45;&gt;_135/pooler_134 -->
<g id="edge9" class="edge">
<title>_135/encoder_123&#45;&gt;_135/pooler_134</title>
<path fill="none" stroke="black" d="M97,-136.53C97,-125.47 97,-113.12 97,-101.41"/>
<polygon fill="black" stroke="black" points="100.5,-101.49 97,-91.49 93.5,-101.49 100.5,-101.49"/>
<text text-anchor="middle" x="109" y="-109.23" font-family="Times,serif" font-size="10.00" fill="white">0 &#45;&gt; 0</text>
</g>
<!-- _135/mul_7 -->
<g id="node5" class="node">
<title>_135/mul_7</title>
<ellipse fill="white" stroke="black" cx="54" cy="-295.65" rx="38.18" ry="38.18"/>
<text text-anchor="middle" x="54" y="-303.03" font-family="Linux libertine" font-size="10.00">mul</text>
<text text-anchor="middle" x="54" y="-291.78" font-family="Linux libertine" font-size="10.00">(1, 1, 1, 64)</text>
<text text-anchor="middle" x="54" y="-280.53" font-family="Linux libertine" font-size="10.00">torch.float32</text>
</g>
<!-- _135/mul_7&#45;&gt;_135/encoder_123 -->
<g id="edge5" class="edge">
<title>_135/mul_7&#45;&gt;_135/encoder_123</title>
<path fill="none" stroke="black" d="M66.67,-259.25C70.92,-247.36 75.73,-233.91 80.25,-221.29"/>
<polygon fill="black" stroke="black" points="83.54,-222.48 83.61,-211.89 76.95,-220.12 83.54,-222.48"/>
<text text-anchor="middle" x="89" y="-229.97" font-family="Times,serif" font-size="10.00" fill="white">0 &#45;&gt; 1</text>
</g>
<!-- _135/__rsub___6 -->
<g id="node6" class="node">
<title>_135/__rsub___6</title>
<ellipse fill="white" stroke="black" cx="54" cy="-419.27" rx="38.18" ry="38.18"/>
<text text-anchor="middle" x="54" y="-426.65" font-family="Linux libertine" font-size="10.00">__rsub__</text>
<text text-anchor="middle" x="54" y="-415.4" font-family="Linux libertine" font-size="10.00">(1, 1, 1, 64)</text>
<text text-anchor="middle" x="54" y="-404.15" font-family="Linux libertine" font-size="10.00">torch.float32</text>
</g>
<!-- _135/__rsub___6&#45;&gt;_135/mul_7 -->
<g id="edge6" class="edge">
<title>_135/__rsub___6&#45;&gt;_135/mul_7</title>
<path fill="none" stroke="black" d="M54,-380.79C54,-369.69 54,-357.37 54,-345.66"/>
<polygon fill="black" stroke="black" points="57.5,-345.73 54,-335.73 50.5,-345.73 57.5,-345.73"/>
<text text-anchor="middle" x="66" y="-353.59" font-family="Times,serif" font-size="10.00" fill="white">0 &#45;&gt; 0</text>
</g>
<!-- _135/to_5&#45;&gt;_135/__rsub___6 -->
<g id="edge7" class="edge">
<title>_135/to_5&#45;&gt;_135/__rsub___6</title>
<path fill="none" stroke="black" d="M54,-504.41C54,-493.31 54,-480.99 54,-469.28"/>
<polygon fill="black" stroke="black" points="57.5,-469.35 54,-459.35 50.5,-469.35 57.5,-469.35"/>
<text text-anchor="middle" x="66" y="-477.2" font-family="Times,serif" font-size="10.00" fill="white">0 &#45;&gt; 0</text>
</g>
<!-- _135/torch_input_3 -->
<g id="node9" class="node">
<title>_135/torch_input_3</title>
<ellipse fill="white" stroke="black" cx="54" cy="-790.12" rx="38.18" ry="38.18"/>
<text text-anchor="middle" x="54" y="-797.5" font-family="Linux libertine" font-size="10.00">ones</text>
<text text-anchor="middle" x="54" y="-786.25" font-family="Linux libertine" font-size="10.00">(1, 64)</text>
<text text-anchor="middle" x="54" y="-775" font-family="Linux libertine" font-size="10.00">torch.float32</text>
</g>
<!-- _135/torch_input_3&#45;&gt;_135/__getitem___4 -->
<g id="edge3" class="edge">
<title>_135/torch_input_3&#45;&gt;_135/__getitem___4</title>
<path fill="none" stroke="black" d="M54,-751.64C54,-740.54 54,-728.23 54,-716.51"/>
<polygon fill="black" stroke="black" points="57.5,-716.59 54,-706.59 50.5,-716.59 57.5,-716.59"/>
<text text-anchor="middle" x="66" y="-724.44" font-family="Times,serif" font-size="10.00" fill="white">0 &#45;&gt; 0</text>
</g>
<!-- _135/module_input_1 -->
<g id="node10" class="node">
<title>_135/module_input_1</title>
<polygon fill="white" stroke="black" points="187.62,-441.77 110.38,-441.77 110.38,-396.77 187.62,-396.77 187.62,-441.77"/>
<text text-anchor="middle" x="149" y="-432.27" font-family="Linux libertine" font-size="10.00">TorchModuleInput</text>
<text text-anchor="middle" x="149" y="-421.02" font-family="Linux libertine" font-size="10.00">input_ids</text>
<text text-anchor="middle" x="149" y="-409.77" font-family="Linux libertine" font-size="10.00">(1, 64)</text>
<text text-anchor="middle" x="149" y="-398.52" font-family="Linux libertine" font-size="10.00">torch.int64</text>
</g>
<!-- _135/module_input_1&#45;&gt;_135/embeddings_34 -->
<g id="edge2" class="edge">
<title>_135/module_input_1&#45;&gt;_135/embeddings_34</title>
<path fill="none" stroke="black" d="M152.58,-396.53C154.98,-381.89 158.25,-362 161.24,-343.83"/>
<polygon fill="black" stroke="black" points="164.69,-344.44 162.86,-334 157.78,-343.3 164.69,-344.44"/>
<text text-anchor="middle" x="171" y="-353.59" font-family="Times,serif" font-size="10.00" fill="white">0 &#45;&gt; 0</text>
</g>
<!-- torch_input_0 -->
<g id="node11" class="node">
<title>torch_input_0</title>
<ellipse fill="white" stroke="black" cx="308" cy="-542.89" rx="32.35" ry="32.35"/>
<text text-anchor="middle" x="308" y="-550.26" font-family="Linux libertine" font-size="10.00">randint</text>
<text text-anchor="middle" x="308" y="-539.01" font-family="Linux libertine" font-size="10.00">(1, 64)</text>
<text text-anchor="middle" x="308" y="-527.76" font-family="Linux libertine" font-size="10.00">torch.int64</text>
</g>
<!-- torch_input_0&#45;&gt;_135/module_input_1 -->
<g id="edge10" class="edge">
<title>torch_input_0&#45;&gt;_135/module_input_1</title>
<path fill="none" stroke="black" d="M286.73,-518.19C282.07,-513.51 277.02,-508.78 272,-504.7 241.41,-479.87 229.28,-480.04 197,-457.45 193.16,-454.77 189.21,-451.89 185.3,-448.98"/>
<polygon fill="black" stroke="black" points="187.61,-446.34 177.53,-443.08 183.38,-451.92 187.61,-446.34"/>
<text text-anchor="middle" x="257" y="-477.2" font-family="Times,serif" font-size="10.00">0 &#45;&gt; 0</text>
</g>
</g>
</svg>
