<?xml version="1.0" encoding="UTF-8" standalone="no"?>
<!DOCTYPE svg PUBLIC "-//W3C//DTD SVG 1.1//EN"
 "http://www.w3.org/Graphics/SVG/1.1/DTD/svg11.dtd">
<!-- Generated by graphviz version 9.0.0 (20230911.1827)
 -->
<!-- Pages: 1 -->
<svg width="630pt" height="894pt"
 viewBox="0.00 0.00 629.75 893.75" xmlns="http://www.w3.org/2000/svg" xmlns:xlink="http://www.w3.org/1999/xlink">
<g id="graph0" class="graph" transform="scale(1 1) rotate(0) translate(4 889.75)">
<polygon fill="white" stroke="none" points="-4,4 -4,-889.75 625.75,-889.75 625.75,4 -4,4"/>
<g id="clust1" class="cluster">
<title>_135</title>
<polygon fill="#0000ff" fill-opacity="0.501961" stroke="black" points="87.75,-8 87.75,-877.75 613.75,-877.75 613.75,-8 87.75,-8"/>
<text text-anchor="middle" x="350.75" y="-860.45" font-family="Times,serif" font-size="14.00">transformers.models.bert.modeling_bert.BertModel</text>
<text text-anchor="middle" x="350.75" y="-843.95" font-family="Times,serif" font-size="14.00">duration: 483.9 ms</text>
</g>
<!-- to_5 -->
<g id="node1" class="node">
<title>to_5</title>
<polygon fill="#dcdcdc" stroke="black" points="603.25,-590 470.25,-590 470.25,-513 603.25,-513 603.25,-590"/>
<polygon fill="none" stroke="black" points="471.25,-514 471.25,-589 543.25,-589 543.25,-514 471.25,-514"/>
<text text-anchor="start" x="475" y="-553.25" font-family="Linux libertine" font-size="10.00">torch.Tensor.to</text>
<text text-anchor="start" x="473.12" y="-542" font-family="Linux libertine" font-size="10.00">duration: 4.1 µs</text>
<polygon fill="none" stroke="black" points="544.25,-552 544.25,-589 602.25,-589 602.25,-552 544.25,-552"/>
<text text-anchor="start" x="558.25" y="-577.5" font-family="Linux libertine" font-size="10.00">Input 0</text>
<text text-anchor="start" x="548.12" y="-566.25" font-family="Linux libertine" font-size="10.00">(1, 1, 1, 64)</text>
<text text-anchor="start" x="546.25" y="-555" font-family="Linux libertine" font-size="10.00">torch.float32</text>
<polygon fill="none" stroke="black" points="544.25,-514 544.25,-551 602.25,-551 602.25,-514 544.25,-514"/>
<text text-anchor="start" x="554.5" y="-539.5" font-family="Linux libertine" font-size="10.00">Output 0</text>
<text text-anchor="start" x="548.12" y="-528.25" font-family="Linux libertine" font-size="10.00">(1, 1, 1, 64)</text>
<text text-anchor="start" x="546.25" y="-517" font-family="Linux libertine" font-size="10.00">torch.float32</text>
</g>
<!-- __rsub___6 -->
<g id="node4" class="node">
<title>__rsub___6</title>
<polygon fill="#dcdcdc" stroke="black" points="605.25,-465.75 444.25,-465.75 444.25,-388.75 605.25,-388.75 605.25,-465.75"/>
<polygon fill="none" stroke="black" points="445.25,-389.75 445.25,-464.75 545.25,-464.75 545.25,-389.75 445.25,-389.75"/>
<text text-anchor="start" x="447.25" y="-429" font-family="Linux libertine" font-size="10.00">torch.Tensor.__rsub__</text>
<text text-anchor="start" x="458.5" y="-417.75" font-family="Linux libertine" font-size="10.00">duration: 55.1 µs</text>
<polygon fill="none" stroke="black" points="546.25,-427.75 546.25,-464.75 604.25,-464.75 604.25,-427.75 546.25,-427.75"/>
<text text-anchor="start" x="560.25" y="-453.25" font-family="Linux libertine" font-size="10.00">Input 0</text>
<text text-anchor="start" x="550.12" y="-442" font-family="Linux libertine" font-size="10.00">(1, 1, 1, 64)</text>
<text text-anchor="start" x="548.25" y="-430.75" font-family="Linux libertine" font-size="10.00">torch.float32</text>
<polygon fill="none" stroke="black" points="546.25,-389.75 546.25,-426.75 604.25,-426.75 604.25,-389.75 546.25,-389.75"/>
<text text-anchor="start" x="556.5" y="-415.25" font-family="Linux libertine" font-size="10.00">Output 0</text>
<text text-anchor="start" x="550.12" y="-404" font-family="Linux libertine" font-size="10.00">(1, 1, 1, 64)</text>
<text text-anchor="start" x="548.25" y="-392.75" font-family="Linux libertine" font-size="10.00">torch.float32</text>
</g>
<!-- to_5&#45;&gt;__rsub___6 -->
<g id="edge4" class="edge">
<title>to_5:#0&#45;&gt;__rsub___6:$0</title>
<path fill="none" stroke="black" d="M573.75,-513C573.75,-496.41 575,-489.67 575.52,-477.24"/>
<polygon fill="black" stroke="black" points="579.02,-477.33 575.72,-467.26 572.02,-477.19 579.02,-477.33"/>
<text text-anchor="middle" x="586.75" y="-485.5" font-family="Times,serif" font-size="10.00" fill="white">0 &#45;&gt; 0</text>
</g>
<!-- torch_input_8 -->
<g id="node2" class="node">
<title>torch_input_8</title>
<polygon fill="#dcdcdc" stroke="black" points="425.75,-455.25 365.75,-455.25 365.75,-399.25 425.75,-399.25 425.75,-455.25"/>
<polygon fill="none" stroke="black" points="366.75,-439 366.75,-454.25 424.75,-454.25 424.75,-439 366.75,-439"/>
<text text-anchor="start" x="368.75" y="-442.75" font-family="Linux libertine" font-size="10.00">torch.Tensor</text>
<polygon fill="none" stroke="black" points="366.75,-400.25 366.75,-438 424.75,-438 424.75,-400.25 366.75,-400.25"/>
<text text-anchor="start" x="377" y="-426.5" font-family="Linux libertine" font-size="10.00">Output 0</text>
<text text-anchor="start" x="381.88" y="-415.25" font-family="Linux libertine" font-size="10.00">(1, 64)</text>
<text text-anchor="start" x="372.88" y="-404" font-family="Linux libertine" font-size="10.00">torch.int64</text>
</g>
<!-- embeddings_34 -->
<g id="node3" class="node">
<title>embeddings_34</title>
<polygon fill="#ee00ee" fill-opacity="0.501961" stroke="black" points="449.25,-341.5 96.25,-341.5 96.25,-264.5 449.25,-264.5 449.25,-341.5"/>
<polygon fill="none" stroke="black" points="97.25,-265.5 97.25,-340.5 348.25,-340.5 348.25,-265.5 97.25,-265.5"/>
<text text-anchor="start" x="99" y="-310.38" font-family="Linux libertine" font-size="10.00">transformers.models.bert.modeling_bert.BertEmbeddings</text>
<text text-anchor="start" x="196.5" y="-299.12" font-family="Linux libertine" font-size="10.00">embeddings</text>
<text text-anchor="start" x="187.5" y="-287.88" font-family="Linux libertine" font-size="10.00">duration: 4.7 ms</text>
<polygon fill="none" stroke="black" points="349.25,-303.5 349.25,-340.5 398.25,-340.5 398.25,-303.5 349.25,-303.5"/>
<text text-anchor="start" x="358.75" y="-329" font-family="Linux libertine" font-size="10.00">Input 0</text>
<text text-anchor="start" x="359.88" y="-317.75" font-family="Linux libertine" font-size="10.00">(1, 64)</text>
<text text-anchor="start" x="350.88" y="-306.5" font-family="Linux libertine" font-size="10.00">torch.int64</text>
<polygon fill="none" stroke="black" points="399.25,-303.5 399.25,-340.5 448.25,-340.5 448.25,-303.5 399.25,-303.5"/>
<text text-anchor="start" x="408.75" y="-329" font-family="Linux libertine" font-size="10.00">Input 1</text>
<text text-anchor="start" x="409.88" y="-317.75" font-family="Linux libertine" font-size="10.00">(1, 64)</text>
<text text-anchor="start" x="400.88" y="-306.5" font-family="Linux libertine" font-size="10.00">torch.int64</text>
<polygon fill="none" stroke="black" points="349.25,-265.5 349.25,-302.5 448.25,-302.5 448.25,-265.5 349.25,-265.5"/>
<text text-anchor="start" x="380" y="-291" font-family="Linux libertine" font-size="10.00">Output 0</text>
<text text-anchor="start" x="374" y="-279.75" font-family="Linux libertine" font-size="10.00">(1, 64, 256)</text>
<text text-anchor="start" x="371.75" y="-268.5" font-family="Linux libertine" font-size="10.00">torch.float32</text>
</g>
<!-- torch_input_8&#45;&gt;embeddings_34 -->
<g id="edge3" class="edge">
<title>torch_input_8:#0&#45;&gt;embeddings_34:$1</title>
<path fill="none" stroke="black" d="M395.75,-399.25C395.75,-375.07 415.87,-370.88 422,-352.8"/>
<polygon fill="black" stroke="black" points="425.44,-353.41 423.52,-343 418.53,-352.34 425.44,-353.41"/>
<text text-anchor="middle" x="429.75" y="-361.25" font-family="Times,serif" font-size="10.00" fill="white">0 &#45;&gt; 1</text>
</g>
<!-- encoder_123 -->
<g id="node9" class="node">
<title>encoder_123</title>
<polygon fill="#ee00ee" fill-opacity="0.501961" stroke="black" points="561.25,-217.25 208.25,-217.25 208.25,-140.25 561.25,-140.25 561.25,-217.25"/>
<polygon fill="none" stroke="black" points="209.25,-141.25 209.25,-216.25 442.25,-216.25 442.25,-141.25 209.25,-141.25"/>
<text text-anchor="start" x="211" y="-186.12" font-family="Linux libertine" font-size="10.00">transformers.models.bert.modeling_bert.BertEncoder</text>
<text text-anchor="start" x="308.5" y="-174.88" font-family="Linux libertine" font-size="10.00">encoder</text>
<text text-anchor="start" x="287.88" y="-163.62" font-family="Linux libertine" font-size="10.00">duration: 66.4 ms</text>
<polygon fill="none" stroke="black" points="443.25,-179.25 443.25,-216.25 501.25,-216.25 501.25,-179.25 443.25,-179.25"/>
<text text-anchor="start" x="457.25" y="-204.75" font-family="Linux libertine" font-size="10.00">Input 0</text>
<text text-anchor="start" x="447.5" y="-193.5" font-family="Linux libertine" font-size="10.00">(1, 64, 256)</text>
<text text-anchor="start" x="445.25" y="-182.25" font-family="Linux libertine" font-size="10.00">torch.float32</text>
<polygon fill="none" stroke="black" points="502.25,-179.25 502.25,-216.25 560.25,-216.25 560.25,-179.25 502.25,-179.25"/>
<text text-anchor="start" x="516.25" y="-204.75" font-family="Linux libertine" font-size="10.00">Input 1</text>
<text text-anchor="start" x="506.12" y="-193.5" font-family="Linux libertine" font-size="10.00">(1, 1, 1, 64)</text>
<text text-anchor="start" x="504.25" y="-182.25" font-family="Linux libertine" font-size="10.00">torch.float32</text>
<polygon fill="none" stroke="black" points="443.25,-141.25 443.25,-178.25 560.25,-178.25 560.25,-141.25 443.25,-141.25"/>
<text text-anchor="start" x="483" y="-166.75" font-family="Linux libertine" font-size="10.00">Output 0</text>
<text text-anchor="start" x="477" y="-155.5" font-family="Linux libertine" font-size="10.00">(1, 64, 256)</text>
<text text-anchor="start" x="474.75" y="-144.25" font-family="Linux libertine" font-size="10.00">torch.float32</text>
</g>
<!-- embeddings_34&#45;&gt;encoder_123 -->
<g id="edge7" class="edge">
<title>embeddings_34:#0&#45;&gt;encoder_123:$0</title>
<path fill="none" stroke="black" d="M449.75,-284C452.75,-284 464.64,-247.17 470.05,-228.15"/>
<polygon fill="black" stroke="black" points="473.38,-229.27 472.39,-218.72 466.58,-227.58 473.38,-229.27"/>
<text text-anchor="middle" x="478.75" y="-237" font-family="Times,serif" font-size="10.00" fill="white">0 &#45;&gt; 0</text>
</g>
<!-- mul_7 -->
<g id="node6" class="node">
<title>mul_7</title>
<polygon fill="#dcdcdc" stroke="black" points="605.75,-341.5 467.75,-341.5 467.75,-264.5 605.75,-264.5 605.75,-341.5"/>
<polygon fill="none" stroke="black" points="468.75,-265.5 468.75,-340.5 545.75,-340.5 545.75,-265.5 468.75,-265.5"/>
<text text-anchor="start" x="471.25" y="-304.75" font-family="Linux libertine" font-size="10.00">torch.Tensor.mul</text>
<text text-anchor="start" x="470.5" y="-293.5" font-family="Linux libertine" font-size="10.00">duration: 23.1 µs</text>
<polygon fill="none" stroke="black" points="546.75,-303.5 546.75,-340.5 604.75,-340.5 604.75,-303.5 546.75,-303.5"/>
<text text-anchor="start" x="560.75" y="-329" font-family="Linux libertine" font-size="10.00">Input 0</text>
<text text-anchor="start" x="550.62" y="-317.75" font-family="Linux libertine" font-size="10.00">(1, 1, 1, 64)</text>
<text text-anchor="start" x="548.75" y="-306.5" font-family="Linux libertine" font-size="10.00">torch.float32</text>
<polygon fill="none" stroke="black" points="546.75,-265.5 546.75,-302.5 604.75,-302.5 604.75,-265.5 546.75,-265.5"/>
<text text-anchor="start" x="557" y="-291" font-family="Linux libertine" font-size="10.00">Output 0</text>
<text text-anchor="start" x="550.62" y="-279.75" font-family="Linux libertine" font-size="10.00">(1, 1, 1, 64)</text>
<text text-anchor="start" x="548.75" y="-268.5" font-family="Linux libertine" font-size="10.00">torch.float32</text>
</g>
<!-- __rsub___6&#45;&gt;mul_7 -->
<g id="edge5" class="edge">
<title>__rsub___6:#0&#45;&gt;mul_7:$0</title>
<path fill="none" stroke="black" d="M575.75,-388.75C575.75,-372.18 575.75,-365.42 575.75,-352.98"/>
<polygon fill="black" stroke="black" points="579.25,-353.01 575.75,-343.01 572.25,-353.01 579.25,-353.01"/>
<text text-anchor="middle" x="587.75" y="-361.25" font-family="Times,serif" font-size="10.00" fill="white">0 &#45;&gt; 0</text>
</g>
<!-- module_input_1 -->
<g id="node5" class="node">
<title>module_input_1</title>
<polygon fill="#dcdcdc" stroke="black" points="248.75,-455.25 194.75,-455.25 194.75,-399.25 248.75,-399.25 248.75,-455.25"/>
<polygon fill="none" stroke="black" points="196.88,-439 196.88,-454.25 246.62,-454.25 246.62,-439 196.88,-439"/>
<text text-anchor="start" x="202.25" y="-442.75" font-family="Linux libertine" font-size="10.00">input_ids</text>
<polygon fill="none" stroke="black" points="196.88,-400.25 196.88,-438 246.62,-438 246.62,-400.25 196.88,-400.25"/>
<text text-anchor="start" x="203" y="-426.5" font-family="Linux libertine" font-size="10.00">Output 0</text>
<text text-anchor="start" x="207.88" y="-415.25" font-family="Linux libertine" font-size="10.00">(1, 64)</text>
<text text-anchor="start" x="198.88" y="-404" font-family="Linux libertine" font-size="10.00">torch.int64</text>
</g>
<!-- module_input_1&#45;&gt;embeddings_34 -->
<g id="edge2" class="edge">
<title>module_input_1:#0&#45;&gt;embeddings_34:$0</title>
<path fill="none" stroke="black" d="M247.75,-419.25C261.82,-419.25 344.03,-374.39 367.5,-351.12"/>
<polygon fill="black" stroke="black" points="370.41,-353.06 372.93,-342.77 364.54,-349.25 370.41,-353.06"/>
<text text-anchor="middle" x="367.75" y="-361.25" font-family="Times,serif" font-size="10.00" fill="white">0 &#45;&gt; 0</text>
</g>
<!-- mul_7&#45;&gt;encoder_123 -->
<g id="edge8" class="edge">
<title>mul_7:#0&#45;&gt;encoder_123:$1</title>
<path fill="none" stroke="black" d="M575.75,-264.5C575.75,-240.29 544.43,-243.72 534.64,-228.15"/>
<polygon fill="black" stroke="black" points="538.08,-227.48 532.14,-218.71 531.31,-229.28 538.08,-227.48"/>
<text text-anchor="middle" x="576.75" y="-237" font-family="Times,serif" font-size="10.00" fill="white">0 &#45;&gt; 1</text>
</g>
<!-- __getitem___4 -->
<g id="node7" class="node">
<title>__getitem___4</title>
<polygon fill="#dcdcdc" stroke="black" points="600.75,-714.25 426.75,-714.25 426.75,-637.25 600.75,-637.25 600.75,-714.25"/>
<polygon fill="none" stroke="black" points="427.75,-638.25 427.75,-713.25 540.75,-713.25 540.75,-638.25 427.75,-638.25"/>
<text text-anchor="start" x="429.5" y="-677.5" font-family="Linux libertine" font-size="10.00">torch.Tensor.__getitem__</text>
<text text-anchor="start" x="447.5" y="-666.25" font-family="Linux libertine" font-size="10.00">duration: 15.0 µs</text>
<polygon fill="none" stroke="black" points="541.75,-676.25 541.75,-713.25 599.75,-713.25 599.75,-676.25 541.75,-676.25"/>
<text text-anchor="start" x="555.75" y="-701.75" font-family="Linux libertine" font-size="10.00">Input 0</text>
<text text-anchor="start" x="556.88" y="-690.5" font-family="Linux libertine" font-size="10.00">(1, 64)</text>
<text text-anchor="start" x="543.75" y="-679.25" font-family="Linux libertine" font-size="10.00">torch.float32</text>
<polygon fill="none" stroke="black" points="541.75,-638.25 541.75,-675.25 599.75,-675.25 599.75,-638.25 541.75,-638.25"/>
<text text-anchor="start" x="552" y="-663.75" font-family="Linux libertine" font-size="10.00">Output 0</text>
<text text-anchor="start" x="545.62" y="-652.5" font-family="Linux libertine" font-size="10.00">(1, 1, 1, 64)</text>
<text text-anchor="start" x="543.75" y="-641.25" font-family="Linux libertine" font-size="10.00">torch.float32</text>
</g>
<!-- __getitem___4&#45;&gt;to_5 -->
<g id="edge1" class="edge">
<title>__getitem___4:#0&#45;&gt;to_5:$0</title>
<path fill="none" stroke="black" d="M570.75,-637.25C570.75,-620.65 572.62,-613.93 573.41,-601.49"/>
<polygon fill="black" stroke="black" points="576.9,-601.61 573.7,-591.51 569.91,-601.4 576.9,-601.61"/>
<text text-anchor="middle" x="584.75" y="-609.75" font-family="Times,serif" font-size="10.00" fill="white">0 &#45;&gt; 0</text>
</g>
<!-- torch_input_3 -->
<g id="node8" class="node">
<title>torch_input_3</title>
<polygon fill="#dcdcdc" stroke="black" points="605.5,-828.75 526,-828.75 526,-761.5 605.5,-761.5 605.5,-828.75"/>
<polygon fill="none" stroke="black" points="527,-801.25 527,-827.75 604.5,-827.75 604.5,-801.25 527,-801.25"/>
<text text-anchor="start" x="542.88" y="-816.25" font-family="Linux libertine" font-size="10.00">torch.ones</text>
<text text-anchor="start" x="529" y="-805" font-family="Linux libertine" font-size="10.00">duration: 26.2 µs</text>
<polygon fill="none" stroke="black" points="527,-762.5 527,-800.25 604.5,-800.25 604.5,-762.5 527,-762.5"/>
<text text-anchor="start" x="547" y="-788.75" font-family="Linux libertine" font-size="10.00">Output 0</text>
<text text-anchor="start" x="551.88" y="-777.5" font-family="Linux libertine" font-size="10.00">(1, 64)</text>
<text text-anchor="start" x="538.75" y="-766.25" font-family="Linux libertine" font-size="10.00">torch.float32</text>
</g>
<!-- torch_input_3&#45;&gt;__getitem___4 -->
<g id="edge6" class="edge">
<title>torch_input_3:#0&#45;&gt;__getitem___4:$0</title>
<path fill="none" stroke="black" d="M565.75,-761.5C565.75,-744.67 568.93,-738.07 570.21,-725.4"/>
<polygon fill="black" stroke="black" points="573.69,-725.92 570.68,-715.76 566.7,-725.58 573.69,-725.92"/>
<text text-anchor="middle" x="580.75" y="-734" font-family="Times,serif" font-size="10.00" fill="white">0 &#45;&gt; 0</text>
</g>
<!-- pooler_134 -->
<g id="node10" class="node">
<title>pooler_134</title>
<polygon fill="#ee00ee" fill-opacity="0.501961" stroke="black" points="531.75,-93 245.75,-93 245.75,-16 531.75,-16 531.75,-93"/>
<polygon fill="none" stroke="black" points="246.75,-17 246.75,-92 471.75,-92 471.75,-17 246.75,-17"/>
<text text-anchor="start" x="248.62" y="-61.88" font-family="Linux libertine" font-size="10.00">transformers.models.bert.modeling_bert.BertPooler</text>
<text text-anchor="start" x="346.12" y="-50.62" font-family="Linux libertine" font-size="10.00">pooler</text>
<text text-anchor="start" x="324" y="-39.38" font-family="Linux libertine" font-size="10.00">duration: 1.5 ms</text>
<polygon fill="none" stroke="black" points="472.75,-55 472.75,-92 530.75,-92 530.75,-55 472.75,-55"/>
<text text-anchor="start" x="486.75" y="-80.5" font-family="Linux libertine" font-size="10.00">Input 0</text>
<text text-anchor="start" x="477" y="-69.25" font-family="Linux libertine" font-size="10.00">(1, 64, 256)</text>
<text text-anchor="start" x="474.75" y="-58" font-family="Linux libertine" font-size="10.00">torch.float32</text>
<polygon fill="none" stroke="black" points="472.75,-17 472.75,-54 530.75,-54 530.75,-17 472.75,-17"/>
<text text-anchor="start" x="483" y="-42.5" font-family="Linux libertine" font-size="10.00">Output 0</text>
<text text-anchor="start" x="485.25" y="-31.25" font-family="Linux libertine" font-size="10.00">(1, 256)</text>
<text text-anchor="start" x="474.75" y="-20" font-family="Linux libertine" font-size="10.00">torch.float32</text>
</g>
<!-- encoder_123&#45;&gt;pooler_134 -->
<g id="edge9" class="edge">
<title>encoder_123:#0&#45;&gt;pooler_134:$0</title>
<path fill="none" stroke="black" d="M501.75,-140.25C501.75,-123.68 501.75,-116.92 501.75,-104.48"/>
<polygon fill="black" stroke="black" points="505.25,-104.51 501.75,-94.51 498.25,-104.51 505.25,-104.51"/>
<text text-anchor="middle" x="513.75" y="-112.75" font-family="Times,serif" font-size="10.00" fill="white">0 &#45;&gt; 0</text>
</g>
<!-- torch_input_0 -->
<g id="node11" class="node">
<title>torch_input_0</title>
<polygon fill="#dcdcdc" stroke="black" points="79.5,-585.12 0,-585.12 0,-517.88 79.5,-517.88 79.5,-585.12"/>
<polygon fill="none" stroke="black" points="1,-557.62 1,-584.12 78.5,-584.12 78.5,-557.62 1,-557.62"/>
<text text-anchor="start" x="12.75" y="-572.62" font-family="Linux libertine" font-size="10.00">torch.randint</text>
<text text-anchor="start" x="3" y="-561.38" font-family="Linux libertine" font-size="10.00">duration: 65.1 µs</text>
<polygon fill="none" stroke="black" points="1,-518.88 1,-556.62 78.5,-556.62 78.5,-518.88 1,-518.88"/>
<text text-anchor="start" x="21" y="-545.12" font-family="Linux libertine" font-size="10.00">Output 0</text>
<text text-anchor="start" x="25.88" y="-533.88" font-family="Linux libertine" font-size="10.00">(1, 64)</text>
<text text-anchor="start" x="16.88" y="-522.62" font-family="Linux libertine" font-size="10.00">torch.int64</text>
</g>
<!-- torch_input_0&#45;&gt;module_input_1 -->
<g id="edge10" class="edge">
<title>torch_input_0:#0&#45;&gt;module_input_1</title>
<path fill="none" stroke="black" d="M39.75,-517.5C39.75,-454.19 129.62,-435.79 183.06,-430.44"/>
<polygon fill="black" stroke="black" points="183.34,-433.93 192.99,-429.57 182.73,-426.95 183.34,-433.93"/>
<text text-anchor="middle" x="61.75" y="-485.5" font-family="Times,serif" font-size="10.00">0 &#45;&gt; 0</text>
</g>
</g>
</svg>
