<?xml version="1.0" encoding="UTF-8" standalone="no"?>
<!DOCTYPE svg PUBLIC "-//W3C//DTD SVG 1.1//EN"
 "http://www.w3.org/Graphics/SVG/1.1/DTD/svg11.dtd">
<!-- Generated by graphviz version 9.0.0 (20230911.1827)
 -->
<!-- Pages: 1 -->
<svg width="96pt" height="195pt"
 viewBox="0.00 0.00 96.18 194.66" xmlns="http://www.w3.org/2000/svg" xmlns:xlink="http://www.w3.org/1999/xlink">
<g id="graph0" class="graph" transform="scale(1 1) rotate(0) translate(4 190.66)">
<polygon fill="white" stroke="none" points="-4,4 -4,-190.66 92.18,-190.66 92.18,4 -4,4"/>
<!-- torch_input_0 -->
<g id="node1" class="node">
<title>torch_input_0</title>
<ellipse fill="white" stroke="black" cx="44.09" cy="-154.31" rx="32.35" ry="32.35"/>
<text text-anchor="middle" x="44.09" y="-161.68" font-family="Linux libertine" font-size="10.00">randint</text>
<text text-anchor="middle" x="44.09" y="-150.43" font-family="Linux libertine" font-size="10.00">(1, 64)</text>
<text text-anchor="middle" x="44.09" y="-139.18" font-family="Linux libertine" font-size="10.00">torch.int64</text>
</g>
<!-- _135 -->
<g id="node2" class="node">
<title>_135</title>
<polygon fill="#0000ff" fill-opacity="0.501961" stroke="black" points="88.18,-37.35 66.14,-74.71 22.05,-74.71 0,-37.35 22.05,0 66.14,0 88.18,-37.35"/>
<text text-anchor="middle" x="44.09" y="-50.73" font-family="Linux libertine" font-size="10.00">BertModel</text>
<text text-anchor="middle" x="44.09" y="-27.48" font-family="Linux libertine" font-size="10.00">(1, 64, 256)</text>
<text text-anchor="middle" x="44.09" y="-16.23" font-family="Linux libertine" font-size="10.00">torch.float32</text>
</g>
<!-- torch_input_0&#45;&gt;_135 -->
<g id="edge1" class="edge">
<title>torch_input_0&#45;&gt;_135</title>
<path fill="none" stroke="black" d="M44.09,-121.59C44.09,-110.61 44.09,-98.05 44.09,-86.08"/>
<polygon fill="black" stroke="black" points="47.59,-86.36 44.09,-76.36 40.59,-86.36 47.59,-86.36"/>
<text text-anchor="middle" x="56.09" y="-94.46" font-family="Times,serif" font-size="10.00">0 &#45;&gt; 0</text>
</g>
</g>
</svg>
