<?xml version="1.0" encoding="UTF-8" standalone="no"?>
<!DOCTYPE svg PUBLIC "-//W3C//DTD SVG 1.1//EN"
 "http://www.w3.org/Graphics/SVG/1.1/DTD/svg11.dtd">
<!-- Generated by graphviz version 9.0.0 (20230911.1827)
 -->
<!-- Pages: 1 -->
<svg width="158pt" height="200pt"
 viewBox="0.00 0.00 158.38 199.50" xmlns="http://www.w3.org/2000/svg" xmlns:xlink="http://www.w3.org/1999/xlink">
<g id="graph0" class="graph" transform="scale(1 1) rotate(0) translate(4 195.5)">
<polygon fill="white" stroke="none" points="-4,4 -4,-195.5 154.38,-195.5 154.38,4 -4,4"/>
<!-- exp_1 -->
<g id="node1" class="node">
<title>exp_1</title>
<polygon fill="#dcdcdc" stroke="black" points="138,-77 0,-77 0,0 138,0 138,-77"/>
<polygon fill="none" stroke="black" points="1,-1 1,-76 78,-76 78,-1 1,-1"/>
<text text-anchor="start" x="19.25" y="-40.25" font-family="Linux libertine" font-size="10.00">torch.exp</text>
<text text-anchor="start" x="2.75" y="-29" font-family="Linux libertine" font-size="10.00">duration: 38.9 µs</text>
<polygon fill="none" stroke="black" points="79,-39 79,-76 137,-76 137,-39 79,-39"/>
<text text-anchor="start" x="93" y="-64.5" font-family="Linux libertine" font-size="10.00">Input 0</text>
<text text-anchor="start" x="94.12" y="-53.25" font-family="Linux libertine" font-size="10.00">(1, 64)</text>
<text text-anchor="start" x="81" y="-42" font-family="Linux libertine" font-size="10.00">torch.float32</text>
<polygon fill="none" stroke="black" points="79,-1 79,-38 137,-38 137,-1 79,-1"/>
<text text-anchor="start" x="89.25" y="-26.5" font-family="Linux libertine" font-size="10.00">Output 0</text>
<text text-anchor="start" x="94.12" y="-15.25" font-family="Linux libertine" font-size="10.00">(1, 64)</text>
<text text-anchor="start" x="81" y="-4" font-family="Linux libertine" font-size="10.00">torch.float32</text>
</g>
<!-- torch_input_0 -->
<g id="node2" class="node">
<title>torch_input_0</title>
<polygon fill="#dcdcdc" stroke="black" points="150.38,-191.5 65.62,-191.5 65.62,-124.25 150.38,-124.25 150.38,-191.5"/>
<polygon fill="none" stroke="black" points="66.62,-164 66.62,-190.5 149.38,-190.5 149.38,-164 66.62,-164"/>
<text text-anchor="start" x="86.25" y="-179" font-family="Linux libertine" font-size="10.00">torch.rand</text>
<text text-anchor="start" x="68.62" y="-167.75" font-family="Linux libertine" font-size="10.00">duration: 369.1 µs</text>
<polygon fill="none" stroke="black" points="66.62,-125.25 66.62,-163 149.38,-163 149.38,-125.25 66.62,-125.25"/>
<text text-anchor="start" x="89.25" y="-151.5" font-family="Linux libertine" font-size="10.00">Output 0</text>
<text text-anchor="start" x="94.12" y="-140.25" font-family="Linux libertine" font-size="10.00">(1, 64)</text>
<text text-anchor="start" x="81" y="-129" font-family="Linux libertine" font-size="10.00">torch.float32</text>
</g>
<!-- torch_input_0&#45;&gt;exp_1 -->
<g id="edge1" class="edge">
<title>torch_input_0:#0&#45;&gt;exp_1:$0</title>
<path fill="none" stroke="black" d="M108,-124.25C108,-107.68 108,-100.92 108,-88.48"/>
<polygon fill="black" stroke="black" points="111.5,-88.51 108,-78.51 104.5,-88.51 111.5,-88.51"/>
<text text-anchor="middle" x="120" y="-96.75" font-family="Times,serif" font-size="10.00">0 &#45;&gt; 0</text>
</g>
</g>
</svg>
