<?xml version="1.0" encoding="UTF-8" standalone="no"?>
<!DOCTYPE svg PUBLIC "-//W3C//DTD SVG 1.1//EN"
 "http://www.w3.org/Graphics/SVG/1.1/DTD/svg11.dtd">
<!-- Generated by graphviz version 9.0.0 (20230911.1827)
 -->
<!-- Pages: 1 -->
<svg width="62pt" height="100pt"
 viewBox="0.00 0.00 62.00 100.25" xmlns="http://www.w3.org/2000/svg" xmlns:xlink="http://www.w3.org/1999/xlink">
<g id="graph0" class="graph" transform="scale(1 1) rotate(0) translate(4 96.25)">
<polygon fill="white" stroke="none" points="-4,4 -4,-96.25 58,-96.25 58,4 -4,4"/>
<!-- _torch_input_0_0 -->
<g id="node1" class="node">
<title>_torch_input_0_0</title>
<polygon fill="lightgrey" stroke="none" points="54,-92.25 0,-92.25 0,-69.75 54,-69.75 54,-92.25"/>
<text text-anchor="middle" x="27" y="-82.75" font-family="Linux libertine" font-size="10.00">rand</text>
<text text-anchor="middle" x="27" y="-71.5" font-family="Linux libertine" font-size="10.00">(1, 64)</text>
</g>
<!-- _exp_1_0 -->
<g id="node2" class="node">
<title>_exp_1_0</title>
<polygon fill="lightgrey" stroke="none" points="54,-22.5 0,-22.5 0,0 54,0 54,-22.5"/>
<text text-anchor="middle" x="27" y="-13" font-family="Linux libertine" font-size="10.00">exp</text>
<text text-anchor="middle" x="27" y="-1.75" font-family="Linux libertine" font-size="10.00">(1, 64)</text>
</g>
<!-- _torch_input_0_0&#45;&gt;_exp_1_0 -->
<g id="edge1" class="edge">
<title>_torch_input_0_0&#45;&gt;_exp_1_0</title>
<path fill="none" stroke="black" d="M27,-70C27,-60.5 27,-45.88 27,-33.74"/>
<polygon fill="black" stroke="black" points="30.5,-33.8 27,-23.8 23.5,-33.8 30.5,-33.8"/>
<text text-anchor="middle" x="39" y="-42.25" font-family="Times,serif" font-size="10.00">0 &#45;&gt; 0</text>
</g>
</g>
</svg>
